<svg xmlns="http://www.w3.org/2000/svg"
     width="24"
     height="24"
     enableBackground="new 0 0 512 512"
     viewBox="0 0 1707 1707">
    <g>
        <g>
            <path d="M1228 1672H82c-45 0-82-37-82-82V117c0-46 37-83 82-83h884c13 0 24 11 24 24v297h297c13 0 24 11 24 24v1211c0 45-37 82-83 82zM82 81c-19 0-35 16-35 36v1473c0 20 16 36 35 36h1146c20 0 36-16 36-36V402H966c-13 0-23-11-23-23V81z" data-original="#000000"></path>
            <path d="M1287 402H966c-13 0-23-11-23-23V58c0-10 6-18 14-22 9-3 19-1 26 5l321 321c6 7 8 17 5 25-4 9-12 15-22 15zm-297-47h241L990 114z" data-original="#000000"></path>
            <path d="M350 363c-3 0-5-1-8-1-9-4-16-12-16-23V58c0-13 11-24 24-24h226c13 0 23 11 23 24v281c0 11-6 19-16 23-9 3-20 0-26-8l-95-126-94 125c-4 6-11 10-18 10zm112-198c7 0 14 4 19 10l72 95V81H373v188l70-94c5-6 12-10 19-10z" data-original="#000000"></path>
            <path d="M655 935c-55 0-100-45-100-101 0-13 10-23 23-23s23 10 23 23c0 30 25 54 54 54 30 0 54-24 54-54 0-29-24-54-54-54-55 0-100-45-100-100s45-100 100-100c56 0 101 45 101 100 0 13-11 23-24 23-12 0-23-10-23-23 0-30-24-54-54-54-29 0-54 24-54 54s25 54 54 54c56 0 101 45 101 100 0 56-45 101-101 101z" data-original="#000000"></path>
            <path d="M655 958c-13 0-23-10-23-23V579c0-13 10-23 23-23s24 10 24 23v356c0 13-11 23-24 23z" data-original="#000000"></path>
            <path d="M655 1055c-164 0-298-133-298-298 0-164 134-298 298-298 165 0 299 134 299 298 0 165-134 298-299 298zm0-550c-138 0-251 113-251 252s113 252 251 252c139 0 252-113 252-252S794 505 655 505z" data-original="#000000"></path>
            <path d="M738 1170H221c-13 0-24-11-24-23 0-13 11-24 24-24h517c13 0 23 11 23 24 0 12-10 23-23 23z" data-original="#000000"></path>
            <path d="M738 1299H221c-13 0-24-10-24-23s11-23 24-23h517c13 0 23 10 23 23s-10 23-23 23z" data-original="#000000"></path>
            <path d="M738 1429H221c-13 0-24-11-24-24s11-23 24-23h517c13 0 23 10 23 23s-10 24-23 24z" data-original="#000000"></path>
            <path d="M738 1558H221c-13 0-24-11-24-23 0-13 11-24 24-24h517c13 0 23 11 23 24 0 12-10 23-23 23z" data-original="#000000"></path>
            <path d="M1090 1170H927c-13 0-24-11-24-23 0-13 11-24 24-24h163c13 0 23 11 23 24 0 12-10 23-23 23z" data-original="#000000"></path>
            <path d="M1090 1299H927c-13 0-24-10-24-23s11-23 24-23h163c13 0 23 10 23 23s-10 23-23 23z" data-original="#000000"></path>
            <path d="M1090 1429H927c-13 0-24-11-24-24s11-23 24-23h163c13 0 23 10 23 23s-10 24-23 24z" data-original="#000000"></path>
            <path d="M1090 1558H927c-13 0-24-11-24-23 0-13 11-24 24-24h163c13 0 23 11 23 24 0 12-10 23-23 23z" data-original="#000000"></path>
            <path d="M1683 1343h-266c-13 0-23-11-23-23V260c0-13 10-23 23-23h266c13 0 24 10 24 23v1060c0 12-11 23-24 23zm-243-47h220V284h-220z" data-original="#000000"></path>
            <path d="M1683 284h-266c-13 0-23-11-23-24V57c0-13 10-23 23-23h266c13 0 24 10 24 23v203c0 13-11 24-24 24zm-243-47h220V81h-220z" data-original="#000000"></path>
            <path d="M1550 1673c-9 0-18-6-22-15l-133-330c-3-7-2-15 3-21 4-7 11-11 19-11h266c8 0 15 4 20 11 4 6 5 14 2 21l-133 330c-4 9-12 15-22 15zm-99-330l99 244 99-244z" data-original="#000000"></path>
            <path d="M1550 1343c-13 0-23-11-23-23V260c0-13 10-23 23-23s23 10 23 23v1060c0 12-10 23-23 23z" data-original="#000000"></path>
        </g>
    </g>
</svg>