<svg width="189" height="63" viewBox="0 0 189 63" fill="none" xmlns="http://www.w3.org/2000/svg">
<path d="M101.752 13.1019C102.254 13.3502 103.002 13.861 103.313 14.0854C107.135 16.5599 115.006 21.5631 115.967 22.1842C117.441 23.1369 117.681 23.4278 118.425 24.566C118.915 25.3155 119.05 29.858 119.166 32.0256L93.4609 15.6084L98.0872 12.9375C99.7552 11.9744 101.124 12.7915 101.752 13.1019Z" fill="url(#paint0_linear_75_919)"/>
<path d="M111.899 49.8613C111.397 49.6128 110.649 49.1021 110.338 48.8777C106.516 46.4034 98.6449 41.4001 97.6839 40.7791C96.21 39.8262 95.9702 39.5353 95.2261 38.3972C94.7359 37.6477 94.6007 33.1051 94.4844 30.9375L120.19 47.3548L115.564 50.0257C113.896 50.9888 112.527 50.1717 111.899 49.8613Z" fill="url(#paint1_linear_75_919)"/>
<g filter="url(#filter0_i_75_919)">
<path d="M111.323 23.3651C109.281 18.5092 105.228 15.3802 103.32 14.0898C107.054 16.4753 114.883 21.4806 116.323 22.4177C118.125 23.589 118.529 24.5582 118.704 25.4659C118.879 26.3736 119.216 32.7357 119.308 33.7688C119.4 34.8019 119.191 35.5822 118.58 35.9348L112.964 39.177C112.497 34.1024 112.331 25.7619 111.323 23.3651Z" fill="url(#paint2_radial_75_919)"/>
</g>
<path d="M111.446 23.3128C110.073 20.0462 107.798 17.5576 105.867 15.8789C109.833 18.4136 115.094 21.7801 116.249 22.5311C117.14 23.1102 117.676 23.6339 118.012 24.1178C118.346 24.5999 118.485 25.0498 118.57 25.4916C118.612 25.7092 118.666 26.2681 118.723 27.0115C118.781 27.7507 118.842 28.6626 118.901 29.5791C118.942 30.2101 118.981 30.8438 119.017 31.4245C119.085 32.5283 119.142 33.441 119.172 33.7809C119.263 34.8028 119.05 35.5071 118.511 35.8178L113.079 38.9543C112.95 37.5093 112.844 35.8208 112.735 34.0862C112.655 32.8083 112.574 31.5055 112.48 30.2569C112.367 28.7465 112.237 27.3174 112.072 26.1149C111.907 24.9163 111.706 23.9299 111.446 23.3128Z" stroke="url(#paint3_linear_75_919)" stroke-width="0.429185"/>
<g filter="url(#filter1_i_75_919)">
<path d="M102.326 39.599C104.368 44.4548 108.42 47.584 110.328 48.8743C106.594 46.489 98.7666 41.4836 97.3254 40.5464C95.5241 39.3751 95.1199 38.406 94.9449 37.4983C94.77 36.5907 94.4334 30.2285 94.3412 29.1954C94.2489 28.1623 94.4582 27.3821 95.069 27.0293L100.684 23.7871C101.151 28.8618 101.318 37.2023 102.326 39.599Z" fill="url(#paint4_radial_75_919)"/>
</g>
<path d="M102.199 39.6513C103.573 42.9178 105.848 45.4065 107.778 47.0853C103.813 44.5507 98.552 41.1841 97.397 40.433C96.5063 39.8538 95.9696 39.3301 95.634 38.8464C95.2998 38.3643 95.1606 37.9143 95.0754 37.4725C95.0335 37.2549 94.98 36.696 94.9221 35.9527C94.8648 35.2135 94.8034 34.3014 94.7447 33.3851C94.7042 32.7541 94.665 32.1204 94.6287 31.5396C94.5603 30.4358 94.5038 29.5232 94.4735 29.1833C94.3824 28.1615 94.5963 27.457 95.1344 27.1463L100.567 24.0098C100.695 25.4549 100.801 27.1435 100.91 28.8779C100.99 30.1559 101.072 31.4587 101.165 32.7073C101.278 34.2176 101.409 35.6469 101.574 36.8493C101.739 38.0479 101.94 39.0343 102.199 39.6513Z" stroke="url(#paint5_linear_75_919)" stroke-width="0.429185"/>
<g filter="url(#filter2_ii_75_919)">
<path d="M128.678 26.0214C129.024 25.4907 129.457 25.0754 129.976 24.7754C130.495 24.464 131.072 24.3082 131.706 24.3082V27.4404H130.893C130.155 27.4404 129.601 27.6019 129.232 27.9249C128.863 28.2364 128.678 28.7901 128.678 29.5862V34.0681H125.719V24.412H128.678V26.0214ZM138.503 31.5589V34.0681H136.997C135.924 34.0681 135.088 33.8085 134.488 33.2894C133.888 32.7587 133.588 31.8992 133.588 30.711V26.8693H132.411V24.412H133.588V22.0586H136.547V24.412H138.485V26.8693H136.547V30.7456C136.547 31.034 136.616 31.2416 136.755 31.3685C136.893 31.4954 137.124 31.5589 137.447 31.5589H138.503ZM149.253 29.0843C149.253 29.3612 149.236 29.6496 149.201 29.9496H142.504C142.55 30.5494 142.741 31.0109 143.075 31.3339C143.421 31.6454 143.842 31.8012 144.339 31.8012C145.077 31.8012 145.59 31.4897 145.879 30.8667H149.028C148.867 31.5012 148.573 32.0723 148.146 32.5799C147.73 33.0875 147.205 33.4855 146.571 33.7739C145.936 34.0623 145.227 34.2066 144.442 34.2066C143.496 34.2066 142.654 34.0046 141.916 33.6009C141.177 33.1971 140.601 32.6202 140.185 31.8704C139.77 31.1205 139.562 30.2437 139.562 29.2401C139.562 28.2364 139.764 27.3596 140.168 26.6097C140.583 25.8599 141.16 25.283 141.899 24.8793C142.637 24.4755 143.485 24.2736 144.442 24.2736C145.377 24.2736 146.207 24.4697 146.934 24.862C147.661 25.2542 148.226 25.8137 148.63 26.5405C149.045 27.2673 149.253 28.1153 149.253 29.0843ZM146.225 28.3056C146.225 27.798 146.052 27.3942 145.706 27.0943C145.36 26.7943 144.927 26.6444 144.408 26.6444C143.912 26.6444 143.491 26.7886 143.145 27.077C142.81 27.3654 142.602 27.7749 142.522 28.3056H146.225ZM150.226 29.2401C150.226 28.2364 150.428 27.3596 150.832 26.6097C151.247 25.8599 151.818 25.283 152.545 24.8793C153.283 24.4755 154.125 24.2736 155.071 24.2736C156.283 24.2736 157.292 24.5909 158.1 25.2254C158.919 25.8599 159.455 26.7539 159.709 27.9076H156.559C156.294 27.1693 155.781 26.8001 155.019 26.8001C154.477 26.8001 154.044 27.0135 153.722 27.4404C153.398 27.8557 153.237 28.4556 153.237 29.2401C153.237 30.0245 153.398 30.6302 153.722 31.0571C154.044 31.4724 154.477 31.68 155.019 31.68C155.781 31.68 156.294 31.3108 156.559 30.5725H159.709C159.455 31.7031 158.919 32.5914 158.1 33.2375C157.28 33.8835 156.271 34.2066 155.071 34.2066C154.125 34.2066 153.283 34.0046 152.545 33.6009C151.818 33.1971 151.247 32.6202 150.832 31.8704C150.428 31.1205 150.226 30.2437 150.226 29.2401ZM165.687 34.2066C164.741 34.2066 163.887 34.0046 163.126 33.6009C162.376 33.1971 161.782 32.6202 161.344 31.8704C160.917 31.1205 160.703 30.2437 160.703 29.2401C160.703 28.2479 160.922 27.3769 161.361 26.6271C161.799 25.8656 162.399 25.283 163.161 24.8793C163.922 24.4755 164.776 24.2736 165.722 24.2736C166.668 24.2736 167.521 24.4755 168.283 24.8793C169.044 25.283 169.644 25.8656 170.083 26.6271C170.521 27.3769 170.74 28.2479 170.74 29.2401C170.74 30.2322 170.515 31.109 170.065 31.8704C169.627 32.6202 169.021 33.1971 168.248 33.6009C167.487 34.0046 166.633 34.2066 165.687 34.2066ZM165.687 31.6454C166.252 31.6454 166.731 31.4378 167.123 31.0225C167.527 30.6071 167.729 30.013 167.729 29.2401C167.729 28.4671 167.533 27.873 167.141 27.4577C166.76 27.0424 166.287 26.8347 165.722 26.8347C165.145 26.8347 164.666 27.0424 164.285 27.4577C163.905 27.8614 163.714 28.4556 163.714 29.2401C163.714 30.013 163.899 30.6071 164.268 31.0225C164.649 31.4378 165.122 31.6454 165.687 31.6454Z" fill="#D7B56D"/>
</g>
<path d="M128.187 42.1523V43.1631H127.861V42.4514H125.828V39.7486H126.169V42.1486H127.52V39.7486H127.857V42.1523H128.187ZM129.546 39.7486H129.864V41.2325C129.864 41.2955 129.863 41.365 129.861 41.4407C129.861 41.514 129.859 41.587 129.857 41.6602C129.854 41.7335 129.851 41.799 129.846 41.8571C129.843 41.9125 129.84 41.9555 129.838 41.9858H129.853L131.341 39.7486H131.719V42.4514H131.401V40.9827C131.401 40.9145 131.403 40.8412 131.405 40.7631C131.408 40.6823 131.41 40.6055 131.413 40.5322C131.418 40.4565 131.422 40.3897 131.424 40.3316C131.426 40.2734 131.429 40.2307 131.432 40.2029H131.416L129.925 42.4514H129.546V39.7486ZM134.678 39.7108V40.0439C134.971 40.049 135.202 40.0969 135.371 40.1877C135.54 40.2786 135.66 40.3997 135.73 40.5511C135.801 40.7001 135.836 40.8667 135.836 41.0508C135.836 41.1719 135.817 41.2931 135.779 41.4142C135.744 41.5329 135.682 41.6413 135.594 41.7397C135.506 41.8357 135.387 41.9139 135.238 41.9744C135.089 42.035 134.903 42.0677 134.678 42.0729V42.4893H134.341V42.0729C134.111 42.0677 133.921 42.035 133.769 41.9744C133.62 41.9114 133.503 41.8306 133.417 41.7322C133.332 41.6313 133.271 41.5215 133.236 41.4028C133.2 41.2841 133.183 41.1668 133.183 41.0508C133.183 40.917 133.202 40.791 133.239 40.6723C133.28 40.5511 133.344 40.4451 133.432 40.3543C133.523 40.261 133.643 40.1864 133.792 40.1309C133.941 40.0755 134.124 40.0463 134.341 40.0439V39.7108H134.678ZM134.341 40.3316C134.139 40.3367 133.978 40.3694 133.856 40.43C133.738 40.4906 133.653 40.5738 133.603 40.6798C133.552 40.7834 133.527 40.9056 133.527 41.047C133.527 41.196 133.555 41.3258 133.61 41.4369C133.669 41.5453 133.757 41.63 133.875 41.6905C133.997 41.7511 134.152 41.7852 134.341 41.7927V40.3316ZM134.678 41.7927C134.872 41.7852 135.029 41.7497 135.147 41.6867C135.268 41.6237 135.355 41.5378 135.408 41.4293C135.464 41.3182 135.492 41.1909 135.492 41.047C135.492 40.9032 135.467 40.7796 135.416 40.676C135.365 40.57 135.281 40.4881 135.162 40.43C135.044 40.3694 134.882 40.3367 134.678 40.3316V41.7927ZM138.023 39.7486C138.377 39.7486 138.634 39.8181 138.795 39.9568C138.957 40.0955 139.038 40.2913 139.038 40.5436C139.038 40.6547 139.019 40.7618 138.981 40.8653C138.945 40.9662 138.886 41.057 138.803 41.1379C138.72 41.2187 138.608 41.2831 138.47 41.3309C138.331 41.3763 138.161 41.3991 137.959 41.3991H137.648V42.4514H137.308V39.7486H138.023ZM137.993 40.0401H137.648V41.1076H137.921C138.093 41.1076 138.235 41.09 138.349 41.0546C138.462 41.0167 138.547 40.9575 138.602 40.8767C138.658 40.7958 138.686 40.6898 138.686 40.5587C138.686 40.3846 138.63 40.2545 138.519 40.1688C138.408 40.0831 138.233 40.0401 137.993 40.0401ZM142.867 41.0962C142.867 41.3058 142.84 41.4961 142.787 41.6678C142.734 41.8368 142.655 41.9834 142.549 42.1069C142.445 42.2305 142.315 42.3251 142.159 42.3908C142.005 42.4565 141.826 42.4893 141.621 42.4893C141.409 42.4893 141.225 42.4565 141.068 42.3908C140.912 42.3227 140.782 42.2281 140.679 42.1069C140.575 41.9834 140.498 41.8357 140.448 41.664C140.397 41.4923 140.372 41.302 140.372 41.0924C140.372 40.8147 140.417 40.5725 140.508 40.3656C140.599 40.1588 140.736 39.9971 140.921 39.8811C141.107 39.7651 141.342 39.707 141.625 39.707C141.895 39.707 142.122 39.7651 142.306 39.8811C142.49 39.9947 142.629 40.1561 142.723 40.3656C142.818 40.5725 142.867 40.8161 142.867 41.0962ZM140.732 41.0962C140.732 41.3233 140.763 41.5188 140.826 41.683C140.889 41.8471 140.986 41.9731 141.118 42.0615C141.251 42.1499 141.419 42.194 141.621 42.194C141.826 42.194 141.992 42.1499 142.121 42.0615C142.252 41.9731 142.349 41.8471 142.412 41.683C142.475 41.5188 142.507 41.3233 142.507 41.0962C142.507 40.7555 142.436 40.4892 142.295 40.2975C142.154 40.1031 141.93 40.006 141.625 40.006C141.421 40.006 141.251 40.0501 141.118 40.1385C140.986 40.2242 140.889 40.3491 140.826 40.5133C140.763 40.6747 140.732 40.8691 140.732 41.0962ZM145.146 39.7486C145.371 39.7486 145.559 39.77 145.71 39.813C145.864 39.856 145.979 39.9265 146.055 40.025C146.133 40.1234 146.172 40.2545 146.172 40.4186C146.172 40.5246 146.152 40.6193 146.111 40.7025C146.074 40.7834 146.015 40.8515 145.937 40.907C145.862 40.9599 145.768 40.9964 145.657 41.0167V41.0357C145.771 41.0532 145.873 41.0862 145.964 41.1341C146.057 41.1819 146.13 41.2501 146.183 41.3385C146.236 41.4269 146.263 41.5415 146.263 41.683C146.263 41.8471 146.225 41.9871 146.149 42.1031C146.074 42.2167 145.965 42.3038 145.824 42.3643C145.685 42.4225 145.518 42.4514 145.324 42.4514H144.374V39.7486H145.146ZM145.214 40.8994C145.447 40.8994 145.606 40.8629 145.691 40.7896C145.777 40.7139 145.82 40.6028 145.82 40.4565C145.82 40.3075 145.767 40.2015 145.661 40.1385C145.557 40.0728 145.391 40.0401 145.161 40.0401H144.715V40.8994H145.214ZM144.715 41.1833V42.1637H145.26C145.5 42.1637 145.666 42.1169 145.759 42.0236C145.853 41.9304 145.899 41.8079 145.899 41.6565C145.899 41.5605 145.878 41.4772 145.835 41.4066C145.795 41.3361 145.725 41.2817 145.627 41.2439C145.531 41.2036 145.4 41.1833 145.233 41.1833H144.715ZM149.44 42.4514L149.115 41.6148H148.044L147.722 42.4514H147.377L148.434 39.7373H148.74L149.792 42.4514H149.44ZM148.71 40.4943C148.702 40.4741 148.69 40.4376 148.672 40.3846C148.654 40.3316 148.637 40.2772 148.619 40.2218C148.604 40.1637 148.591 40.1196 148.581 40.0893C148.568 40.1399 148.555 40.1915 148.54 40.2445C148.527 40.2951 148.513 40.3416 148.498 40.3846C148.485 40.4276 148.474 40.4641 148.464 40.4943L148.157 41.312H149.013L148.71 40.4943ZM151.884 41.3309L151.184 42.4514H150.787L151.544 41.2704C151.448 41.2376 151.357 41.1922 151.271 41.1341C151.188 41.0759 151.12 40.9964 151.067 40.8956C151.014 40.7947 150.987 40.6647 150.987 40.5057C150.987 40.261 151.072 40.0742 151.241 39.9455C151.41 39.8143 151.662 39.7486 151.998 39.7486H152.755V42.4514H152.414V41.3309H151.884ZM152.006 40.0401C151.862 40.0401 151.741 40.0566 151.642 40.0893C151.544 40.122 151.468 40.1739 151.415 40.2445C151.364 40.3151 151.339 40.4073 151.339 40.5208C151.339 40.6874 151.395 40.8161 151.506 40.907C151.617 40.9978 151.788 41.0432 152.021 41.0432H152.414V40.0401H152.006ZM157.03 39.7486C157.383 39.7486 157.64 39.8181 157.802 39.9568C157.964 40.0955 158.044 40.2913 158.044 40.5436C158.044 40.6547 158.025 40.7618 157.988 40.8653C157.952 40.9662 157.893 41.057 157.81 41.1379C157.726 41.2187 157.615 41.2831 157.477 41.3309C157.338 41.3763 157.167 41.3991 156.966 41.3991H156.655V42.4514H156.314V39.7486H157.03ZM157 40.0401H156.655V41.1076H156.928C157.099 41.1076 157.242 41.09 157.355 41.0546C157.469 41.0167 157.553 40.9575 157.609 40.8767C157.664 40.7958 157.692 40.6898 157.692 40.5587C157.692 40.3846 157.637 40.2545 157.526 40.1688C157.415 40.0831 157.239 40.0401 157 40.0401ZM161.022 42.4514L160.697 41.6148H159.625L159.304 42.4514H158.959L160.015 39.7373H160.322L161.374 42.4514H161.022ZM160.292 40.4943C160.284 40.4741 160.271 40.4376 160.254 40.3846C160.236 40.3316 160.218 40.2772 160.201 40.2218C160.186 40.1637 160.173 40.1196 160.163 40.0893C160.15 40.1399 160.136 40.1915 160.121 40.2445C160.109 40.2951 160.095 40.3416 160.08 40.3846C160.067 40.4276 160.056 40.4641 160.046 40.4943L159.739 41.312H160.594L160.292 40.4943ZM164.25 40.3808C164.25 40.5649 164.192 40.7115 164.076 40.8199C163.96 40.9259 163.804 40.994 163.61 41.0243V41.0394C163.837 41.0697 164.01 41.1403 164.129 41.2514C164.247 41.3626 164.307 41.5075 164.307 41.6867C164.307 41.8457 164.266 41.9858 164.185 42.1069C164.105 42.2256 163.984 42.3189 163.822 42.387C163.661 42.4552 163.459 42.4893 163.216 42.4893C163.07 42.4893 162.93 42.4779 162.796 42.4552C162.665 42.4349 162.543 42.397 162.429 42.3416V42.0312C162.507 42.0691 162.591 42.1018 162.679 42.1296C162.77 42.1548 162.861 42.1751 162.951 42.1902C163.042 42.2029 163.129 42.2091 163.213 42.2091C163.455 42.2091 163.638 42.1637 163.761 42.0729C163.888 41.982 163.951 41.8533 163.951 41.6867C163.951 41.515 163.878 41.3901 163.731 41.312C163.585 41.2338 163.38 41.1946 163.118 41.1946H162.732V40.9107H163.099C163.278 40.9107 163.426 40.8905 163.542 40.8502C163.661 40.8099 163.749 40.7531 163.807 40.6798C163.867 40.6041 163.898 40.5157 163.898 40.4148C163.898 40.2786 163.847 40.1739 163.746 40.1007C163.645 40.0274 163.514 39.9909 163.353 39.9909C163.184 39.9909 163.042 40.0122 162.929 40.0552C162.818 40.0982 162.709 40.1537 162.603 40.2218L162.44 39.9909C162.511 39.9379 162.592 39.8911 162.683 39.8508C162.776 39.8078 162.879 39.7738 162.993 39.7486C163.107 39.7235 163.228 39.7108 163.356 39.7108C163.551 39.7108 163.714 39.7397 163.845 39.7978C163.979 39.856 164.079 39.9355 164.148 40.0363C164.216 40.1347 164.25 40.2496 164.25 40.3808ZM166.502 39.7486C166.855 39.7486 167.113 39.8181 167.274 39.9568C167.435 40.0955 167.516 40.2913 167.516 40.5436C167.516 40.6547 167.497 40.7618 167.46 40.8653C167.424 40.9662 167.365 41.057 167.282 41.1379C167.198 41.2187 167.087 41.2831 166.948 41.3309C166.81 41.3763 166.639 41.3991 166.437 41.3991H166.127V42.4514H165.786V39.7486H166.502ZM166.472 40.0401H166.127V41.1076H166.4C166.571 41.1076 166.714 41.09 166.827 41.0546C166.941 41.0167 167.026 40.9575 167.081 40.8767C167.136 40.7958 167.164 40.6898 167.164 40.5587C167.164 40.3846 167.109 40.2545 166.998 40.1688C166.887 40.0831 166.711 40.0401 166.472 40.0401ZM170.494 42.4514L170.169 41.6148H169.097L168.775 42.4514H168.431L169.487 39.7373H169.794L170.846 42.4514H170.494ZM169.763 40.4943C169.756 40.4741 169.743 40.4376 169.726 40.3846C169.708 40.3316 169.69 40.2772 169.673 40.2218C169.657 40.1637 169.645 40.1196 169.635 40.0893C169.622 40.1399 169.608 40.1915 169.593 40.2445C169.581 40.2951 169.567 40.3416 169.551 40.3846C169.539 40.4276 169.528 40.4641 169.517 40.4943L169.211 41.312H170.066L169.763 40.4943ZM172.124 42.4514V39.7486H173.729V40.0477H172.465V40.8918H172.866C173.136 40.8918 173.346 40.9259 173.495 40.994C173.644 41.0597 173.747 41.1506 173.805 41.2666C173.863 41.3801 173.892 41.5113 173.892 41.6602C173.892 41.8244 173.859 41.9655 173.794 42.0842C173.731 42.2029 173.627 42.2938 173.483 42.3568C173.34 42.4198 173.15 42.4514 172.916 42.4514H172.124ZM172.882 42.1599C173.124 42.1599 173.294 42.1196 173.393 42.0388C173.491 41.9555 173.54 41.8292 173.54 41.6602C173.54 41.5443 173.516 41.4521 173.468 41.3839C173.423 41.3133 173.347 41.2628 173.241 41.2325C173.138 41.2022 172.999 41.1871 172.825 41.1871H172.465V42.1599H172.882ZM177.72 41.0962C177.72 41.3058 177.694 41.4961 177.641 41.6678C177.588 41.8368 177.508 41.9834 177.402 42.1069C177.299 42.2305 177.169 42.3251 177.012 42.3908C176.858 42.4565 176.679 42.4893 176.475 42.4893C176.263 42.4893 176.079 42.4565 175.922 42.3908C175.766 42.3227 175.636 42.2281 175.532 42.1069C175.429 41.9834 175.352 41.8357 175.301 41.664C175.251 41.4923 175.226 41.302 175.226 41.0924C175.226 40.8147 175.271 40.5725 175.362 40.3656C175.453 40.1588 175.59 39.9971 175.774 39.8811C175.961 39.7651 176.196 39.707 176.479 39.707C176.749 39.707 176.976 39.7651 177.16 39.8811C177.344 39.9947 177.483 40.1561 177.576 40.3656C177.672 40.5725 177.72 40.8161 177.72 41.0962ZM175.585 41.0962C175.585 41.3233 175.617 41.5188 175.68 41.683C175.743 41.8471 175.84 41.9731 175.971 42.0615C176.105 42.1499 176.273 42.194 176.475 42.194C176.679 42.194 176.846 42.1499 176.974 42.0615C177.106 41.9731 177.203 41.8471 177.266 41.683C177.329 41.5188 177.361 41.3233 177.361 41.0962C177.361 40.7555 177.29 40.4892 177.149 40.2975C177.007 40.1031 176.784 40.006 176.479 40.006C176.274 40.006 176.105 40.0501 175.971 40.1385C175.84 40.2242 175.743 40.3491 175.68 40.5133C175.617 40.6747 175.585 40.8691 175.585 41.0962ZM179.969 42.4514H179.628V40.0477H178.784V39.7486H180.809V40.0477H179.969V42.4514ZM184.097 42.4514H183.688L182.466 41.0811V42.4514H182.125V39.7486H182.466V41.0584L183.658 39.7486H184.044L182.871 41.0622L184.097 42.4514ZM187.069 42.4514L186.744 41.6148H185.672L185.351 42.4514H185.006L186.062 39.7373H186.369L187.421 42.4514H187.069ZM186.339 40.4943C186.331 40.4741 186.319 40.4376 186.301 40.3846C186.283 40.3316 186.266 40.2772 186.248 40.2218C186.233 40.1637 186.22 40.1196 186.21 40.0893C186.198 40.1399 186.183 40.1915 186.168 40.2445C186.156 40.2951 186.142 40.3416 186.127 40.3846C186.114 40.4276 186.103 40.4641 186.093 40.4943L185.786 41.312H186.642L186.339 40.4943Z" fill="black" fill-opacity="0.7"/>
<path d="M1.85929 28.6241C2.46495 28.6241 2.90622 28.7431 3.1831 28.981C3.45997 29.219 3.59841 29.5542 3.59841 29.9869C3.59841 30.1772 3.56597 30.3611 3.50107 30.5385C3.44051 30.7115 3.33884 30.8672 3.19608 31.0057C3.05331 31.1441 2.86296 31.2544 2.62502 31.3366C2.38708 31.4145 2.09506 31.4534 1.74897 31.4534H1.21685V33.2575H0.632812V28.6241H1.85929ZM1.80737 29.1238H1.21685V30.9538H1.68408C1.97826 30.9538 2.22269 30.9235 2.41737 30.8629C2.61204 30.798 2.75697 30.6964 2.85215 30.5579C2.94732 30.4195 2.99491 30.2378 2.99491 30.0128C2.99491 29.7143 2.89973 29.4915 2.70938 29.3444C2.51903 29.1973 2.21836 29.1238 1.80737 29.1238ZM10.0661 33.2575L9.50795 31.8233H7.67148L7.1199 33.2575H6.52937L8.33988 28.6046H8.86551L10.6696 33.2575H10.0661ZM8.8136 29.9025C8.80062 29.8679 8.77899 29.8052 8.7487 29.7143C8.71842 29.6235 8.68814 29.5305 8.65785 29.4353C8.6319 29.3358 8.61026 29.2601 8.59296 29.2082C8.57133 29.2947 8.54754 29.3834 8.52158 29.4742C8.49995 29.5607 8.47615 29.6408 8.4502 29.7143C8.42857 29.7879 8.4091 29.8506 8.39179 29.9025L7.86616 31.3042H9.33274L8.8136 29.9025ZM16.9621 29.7078C16.9621 30.0236 16.8625 30.2746 16.6635 30.4606C16.4645 30.6423 16.1985 30.7591 15.8654 30.811V30.837C16.2547 30.8889 16.5511 31.01 16.7544 31.2004C16.9577 31.3907 17.0594 31.6395 17.0594 31.9466C17.0594 32.2192 16.9902 32.4593 16.8517 32.6669C16.7133 32.8703 16.5056 33.0303 16.2288 33.1471C15.9519 33.2639 15.6058 33.3223 15.1905 33.3223C14.9396 33.3223 14.6995 33.3029 14.4702 33.2639C14.2452 33.2293 14.0354 33.1644 13.8407 33.0693V32.5371C13.9748 32.602 14.1176 32.6583 14.269 32.7059C14.4247 32.7491 14.5805 32.7837 14.7362 32.8097C14.892 32.8313 15.0412 32.8421 15.184 32.8421C15.5993 32.8421 15.913 32.7643 16.1249 32.6085C16.3412 32.4528 16.4494 32.2322 16.4494 31.9466C16.4494 31.6524 16.3239 31.4383 16.073 31.3042C15.8221 31.1701 15.4717 31.103 15.0218 31.103H14.3599V30.6163H14.9893C15.2965 30.6163 15.5496 30.5817 15.7486 30.5125C15.9519 30.4433 16.1033 30.3459 16.2028 30.2205C16.3066 30.0907 16.3585 29.9393 16.3585 29.7662C16.3585 29.5326 16.272 29.3531 16.099 29.2276C15.9259 29.1022 15.701 29.0394 15.4241 29.0394C15.1342 29.0394 14.892 29.0762 14.6973 29.1497C14.5069 29.2233 14.3209 29.3185 14.1392 29.4353L13.8602 29.0394C13.9813 28.9486 14.1198 28.8685 14.2755 28.7993C14.4356 28.7258 14.6129 28.6674 14.8076 28.6241C15.0023 28.5809 15.2099 28.5592 15.4306 28.5592C15.7637 28.5592 16.0427 28.609 16.2677 28.7085C16.497 28.808 16.67 28.9443 16.7868 29.1173C16.9036 29.286 16.9621 29.4829 16.9621 29.7078ZM22.1852 28.6241C22.7908 28.6241 23.2321 28.7431 23.509 28.981C23.7859 29.219 23.9243 29.5542 23.9243 29.9869C23.9243 30.1772 23.8919 30.3611 23.827 30.5385C23.7664 30.7115 23.6647 30.8672 23.522 31.0057C23.3792 31.1441 23.1889 31.2544 22.9509 31.3366C22.713 31.4145 22.421 31.4534 22.0749 31.4534H21.5427V33.2575H20.9587V28.6241H22.1852ZM22.1333 29.1238H21.5427V30.9538H22.01C22.3042 30.9538 22.5486 30.9235 22.7433 30.8629C22.9379 30.798 23.0829 30.6964 23.178 30.5579C23.2732 30.4195 23.3208 30.2378 23.3208 30.0128C23.3208 29.7143 23.2256 29.4915 23.0353 29.3444C22.8449 29.1973 22.5443 29.1238 22.1333 29.1238ZM30.3918 33.2575L29.8338 31.8233H27.9973L27.4457 33.2575H26.8553L28.6657 28.6046H29.1913L30.9953 33.2575H30.3918ZM29.1394 29.9025C29.1264 29.8679 29.1048 29.8052 29.0745 29.7143C29.0442 29.6235 29.0139 29.5305 28.9837 29.4353C28.9577 29.3358 28.9361 29.2601 28.9188 29.2082C28.8971 29.2947 28.8733 29.3834 28.8474 29.4742C28.8258 29.5607 28.802 29.6408 28.776 29.7143C28.7544 29.7879 28.7349 29.8506 28.7176 29.9025L28.192 31.3042H29.6586L29.1394 29.9025ZM34.5496 33.2575V28.6241H37.301V29.1368H35.1336V30.5839H35.8215C36.2844 30.5839 36.6434 30.6423 36.8987 30.7591C37.1539 30.8716 37.3313 31.0273 37.4308 31.2263C37.5303 31.421 37.5801 31.646 37.5801 31.9012C37.5801 32.1824 37.5238 32.4247 37.4113 32.628C37.3032 32.8313 37.1258 32.9871 36.8792 33.0952C36.6326 33.2034 36.3082 33.2575 35.9058 33.2575H34.5496ZM35.8474 32.7578C36.2627 32.7578 36.5548 32.6886 36.7235 32.5501C36.8922 32.4074 36.9766 32.1911 36.9766 31.9012C36.9766 31.7022 36.9355 31.5443 36.8533 31.4275C36.7754 31.3063 36.6456 31.2198 36.4639 31.1679C36.2865 31.116 36.0486 31.09 35.7501 31.09H35.1336V32.7578H35.8474ZM45.5048 30.9343C45.5048 31.2934 45.4594 31.62 45.3685 31.9142C45.2777 32.204 45.1414 32.4549 44.9597 32.6669C44.7823 32.8789 44.5595 33.0411 44.2913 33.1536C44.0274 33.2661 43.7203 33.3223 43.3698 33.3223C43.0064 33.3223 42.6906 33.2661 42.4224 33.1536C42.1542 33.0368 41.9314 32.8746 41.754 32.6669C41.5766 32.4549 41.4447 32.2019 41.3582 31.9077C41.2716 31.6135 41.2284 31.2869 41.2284 30.9278C41.2284 30.4519 41.3062 30.0366 41.462 29.6819C41.6177 29.3271 41.8535 29.0502 42.1693 28.8512C42.4895 28.6522 42.8918 28.5527 43.3763 28.5527C43.8392 28.5527 44.2286 28.6522 44.5444 28.8512C44.8602 29.0459 45.0981 29.3228 45.2582 29.6819C45.4226 30.0366 45.5048 30.4541 45.5048 30.9343ZM41.8449 30.9343C41.8449 31.3237 41.8989 31.6589 42.0071 31.9401C42.1152 32.2213 42.2818 32.4376 42.5068 32.5891C42.7361 32.7405 43.0237 32.8162 43.3698 32.8162C43.7203 32.8162 44.0058 32.7405 44.2264 32.5891C44.4514 32.4376 44.6179 32.2213 44.7261 31.9401C44.8343 31.6589 44.8883 31.3237 44.8883 30.9343C44.8883 30.3503 44.7672 29.8939 44.5249 29.5651C44.2827 29.2319 43.8998 29.0654 43.3763 29.0654C43.0259 29.0654 42.7361 29.1411 42.5068 29.2925C42.2818 29.4396 42.1152 29.6537 42.0071 29.9349C41.8989 30.2118 41.8449 30.5449 41.8449 30.9343ZM50.7222 33.2575H50.1382V29.1368H48.691V28.6241H52.1628V29.1368H50.7222V33.2575ZM58.2324 33.2575L57.6744 31.8233H55.8379L55.2863 33.2575H54.6958L56.5063 28.6046H57.0319L58.8359 33.2575H58.2324ZM56.98 29.9025C56.967 29.8679 56.9454 29.8052 56.9151 29.7143C56.8848 29.6235 56.8545 29.5305 56.8243 29.4353C56.7983 29.3358 56.7767 29.2601 56.7594 29.2082C56.7377 29.2947 56.7139 29.3834 56.688 29.4742C56.6664 29.5607 56.6426 29.6408 56.6166 29.7143C56.595 29.7879 56.5755 29.8506 56.5582 29.9025L56.0326 31.3042H57.4991L56.98 29.9025ZM65.933 33.2575H65.349V31.0965H62.9739V33.2575H62.3899V28.6241H62.9739V30.5839H65.349V28.6241H65.933V33.2575ZM74.1628 30.9343C74.1628 31.2934 74.1174 31.62 74.0265 31.9142C73.9357 32.204 73.7994 32.4549 73.6177 32.6669C73.4403 32.8789 73.2175 33.0411 72.9493 33.1536C72.6854 33.2661 72.3782 33.3223 72.0278 33.3223C71.6644 33.3223 71.3486 33.2661 71.0804 33.1536C70.8122 33.0368 70.5894 32.8746 70.412 32.6669C70.2346 32.4549 70.1027 32.2019 70.0161 31.9077C69.9296 31.6135 69.8863 31.2869 69.8863 30.9278C69.8863 30.4519 69.9642 30.0366 70.12 29.6819C70.2757 29.3271 70.5115 29.0502 70.8273 28.8512C71.1474 28.6522 71.5498 28.5527 72.0343 28.5527C72.4972 28.5527 72.8866 28.6522 73.2024 28.8512C73.5182 29.0459 73.7561 29.3228 73.9162 29.6819C74.0806 30.0366 74.1628 30.4541 74.1628 30.9343ZM70.5028 30.9343C70.5028 31.3237 70.5569 31.6589 70.6651 31.9401C70.7732 32.2213 70.9398 32.4376 71.1647 32.5891C71.394 32.7405 71.6817 32.8162 72.0278 32.8162C72.3782 32.8162 72.6638 32.7405 72.8844 32.5891C73.1094 32.4376 73.2759 32.2213 73.3841 31.9401C73.4922 31.6589 73.5463 31.3237 73.5463 30.9343C73.5463 30.3503 73.4252 29.8939 73.1829 29.5651C72.9406 29.2319 72.5578 29.0654 72.0343 29.0654C71.6839 29.0654 71.394 29.1411 71.1647 29.2925C70.9398 29.4396 70.7732 29.6537 70.6651 29.9349C70.5569 30.2118 70.5028 30.5449 70.5028 30.9343ZM84.0841 28.6241C84.4691 28.6241 84.7914 28.6609 85.051 28.7344C85.3149 28.808 85.5117 28.9291 85.6415 29.0978C85.7756 29.2666 85.8427 29.4915 85.8427 29.7727C85.8427 29.9544 85.808 30.1166 85.7388 30.2594C85.6739 30.3979 85.5744 30.5147 85.4403 30.6098C85.3105 30.7007 85.1505 30.7634 84.9601 30.798V30.8305C85.1548 30.8608 85.33 30.917 85.4857 30.9992C85.6458 31.0814 85.7713 31.1982 85.8621 31.3496C85.953 31.501 85.9984 31.6979 85.9984 31.9401C85.9984 32.2213 85.9335 32.4614 85.8037 32.6604C85.6739 32.8551 85.4879 33.0044 85.2456 33.1082C85.0077 33.2077 84.7222 33.2575 84.3891 33.2575H82.7603V28.6241H84.0841ZM84.2009 30.5969C84.5989 30.5969 84.8714 30.5341 85.0185 30.4087C85.1656 30.2789 85.2392 30.0885 85.2392 29.8376C85.2392 29.5824 85.1483 29.4007 84.9666 29.2925C84.7892 29.18 84.5037 29.1238 84.11 29.1238H83.3443V30.5969H84.2009ZM83.3443 31.0835V32.7643H84.2787C84.6897 32.7643 84.9753 32.6842 85.1353 32.5242C85.2954 32.3641 85.3754 32.1543 85.3754 31.8947C85.3754 31.7303 85.3387 31.5875 85.2651 31.4664C85.1959 31.3453 85.0769 31.2523 84.9082 31.1874C84.7438 31.1182 84.5188 31.0835 84.2333 31.0835H83.3443Z" fill="black" fill-opacity="0.7"/>
<defs>
<filter id="filter0_i_75_919" x="101.604" y="12.3731" width="17.7255" height="26.8041" filterUnits="userSpaceOnUse" color-interpolation-filters="sRGB">
<feFlood flood-opacity="0" result="BackgroundImageFix"/>
<feBlend mode="normal" in="SourceGraphic" in2="BackgroundImageFix" result="shape"/>
<feColorMatrix in="SourceAlpha" type="matrix" values="0 0 0 0 0 0 0 0 0 0 0 0 0 0 0 0 0 0 127 0" result="hardAlpha"/>
<feOffset dx="-1.71674" dy="-1.71674"/>
<feGaussianBlur stdDeviation="2.57511"/>
<feComposite in2="hardAlpha" operator="arithmetic" k2="-1" k3="1"/>
<feColorMatrix type="matrix" values="0 0 0 0 1 0 0 0 0 1 0 0 0 0 1 0 0 0 0.12 0"/>
<feBlend mode="normal" in2="shape" result="effect1_innerShadow_75_919"/>
</filter>
<filter id="filter1_i_75_919" x="94.3203" y="23.7871" width="17.7248" height="26.8041" filterUnits="userSpaceOnUse" color-interpolation-filters="sRGB">
<feFlood flood-opacity="0" result="BackgroundImageFix"/>
<feBlend mode="normal" in="SourceGraphic" in2="BackgroundImageFix" result="shape"/>
<feColorMatrix in="SourceAlpha" type="matrix" values="0 0 0 0 0 0 0 0 0 0 0 0 0 0 0 0 0 0 127 0" result="hardAlpha"/>
<feOffset dx="1.71674" dy="1.71674"/>
<feGaussianBlur stdDeviation="2.57511"/>
<feComposite in2="hardAlpha" operator="arithmetic" k2="-1" k3="1"/>
<feColorMatrix type="matrix" values="0 0 0 0 1 0 0 0 0 1 0 0 0 0 1 0 0 0 0.12 0"/>
<feBlend mode="normal" in2="shape" result="effect1_innerShadow_75_919"/>
</filter>
<filter id="filter2_ii_75_919" x="124.002" y="20.3419" width="48.4545" height="15.5814" filterUnits="userSpaceOnUse" color-interpolation-filters="sRGB">
<feFlood flood-opacity="0" result="BackgroundImageFix"/>
<feBlend mode="normal" in="SourceGraphic" in2="BackgroundImageFix" result="shape"/>
<feColorMatrix in="SourceAlpha" type="matrix" values="0 0 0 0 0 0 0 0 0 0 0 0 0 0 0 0 0 0 127 0" result="hardAlpha"/>
<feOffset dx="-1.71674" dy="-1.71674"/>
<feGaussianBlur stdDeviation="0.858369"/>
<feComposite in2="hardAlpha" operator="arithmetic" k2="-1" k3="1"/>
<feColorMatrix type="matrix" values="0 0 0 0 0.72549 0 0 0 0 0.564706 0 0 0 0 0.223529 0 0 0 0.24 0"/>
<feBlend mode="normal" in2="shape" result="effect1_innerShadow_75_919"/>
<feColorMatrix in="SourceAlpha" type="matrix" values="0 0 0 0 0 0 0 0 0 0 0 0 0 0 0 0 0 0 127 0" result="hardAlpha"/>
<feOffset dx="1.71674" dy="1.71674"/>
<feGaussianBlur stdDeviation="1.71674"/>
<feComposite in2="hardAlpha" operator="arithmetic" k2="-1" k3="1"/>
<feColorMatrix type="matrix" values="0 0 0 0 0.725 0 0 0 0 0.563981 0 0 0 0 0.223542 0 0 0 0.04 0"/>
<feBlend mode="normal" in2="effect1_innerShadow_75_919" result="effect2_innerShadow_75_919"/>
</filter>
<linearGradient id="paint0_linear_75_919" x1="94.1755" y1="15.1959" x2="114.673" y2="32.0604" gradientUnits="userSpaceOnUse">
<stop stop-color="#D7B56D"/>
<stop offset="1" stop-color="#CFA753"/>
</linearGradient>
<linearGradient id="paint1_linear_75_919" x1="119.475" y1="47.7672" x2="98.9774" y2="30.9027" gradientUnits="userSpaceOnUse">
<stop stop-color="#D7B56D"/>
<stop offset="1" stop-color="#CFA753"/>
</linearGradient>
<radialGradient id="paint2_radial_75_919" cx="0" cy="0" r="1" gradientUnits="userSpaceOnUse" gradientTransform="translate(110.432 19.5469) rotate(63.2379) scale(28.2886 20.1149)">
<stop stop-color="#D7B56C"/>
<stop offset="1" stop-color="#89661A"/>
</radialGradient>
<linearGradient id="paint3_linear_75_919" x1="104.906" y1="13.1735" x2="118.181" y2="36.165" gradientUnits="userSpaceOnUse">
<stop stop-color="#1C1A1A" stop-opacity="0.12"/>
<stop offset="1" stop-color="#0E0D0D" stop-opacity="0"/>
</linearGradient>
<radialGradient id="paint4_radial_75_919" cx="0" cy="0" r="1" gradientUnits="userSpaceOnUse" gradientTransform="translate(103.216 43.4174) rotate(-117.839) scale(26.5851 18.9037)">
<stop stop-color="#D7B56D"/>
<stop offset="1" stop-color="#89661A"/>
</radialGradient>
<linearGradient id="paint5_linear_75_919" x1="108.739" y1="49.7908" x2="95.4653" y2="26.7992" gradientUnits="userSpaceOnUse">
<stop stop-color="#453434" stop-opacity="0"/>
<stop offset="1" stop-color="#2E2929" stop-opacity="0.08"/>
</linearGradient>
</defs>
</svg>
