<svg width="48" height="48" viewBox="0 0 48 48" fill="none" xmlns="http://www.w3.org/2000/svg">
<path fill-rule="evenodd" clip-rule="evenodd" d="M20 7.5C19.8674 7.5 19.7402 7.55268 19.6464 7.64645C19.5527 7.74021 19.5 7.86739 19.5 8V19.3787L27.0606 26.9393C27.342 27.2206 27.5 27.6022 27.5 28V40.5H40.5V8C40.5 7.86739 40.4473 7.74021 40.3535 7.64645C40.2598 7.55268 40.1326 7.5 40 7.5H20ZM42 43.5C42.8284 43.5 43.5 42.8284 43.5 42V8C43.5 7.07175 43.1312 6.18151 42.4749 5.52513C41.8185 4.86875 40.9282 4.5 40 4.5H20C19.0717 4.5 18.1815 4.86875 17.5251 5.52513C16.8687 6.1815 16.5 7.07174 16.5 8V16.5854C15.9723 16.3993 15.3614 16.5173 14.9393 16.9393L4.93934 26.9393C4.65804 27.2206 4.5 27.6022 4.5 28V42C4.5 42.8284 5.17157 43.5 6 43.5H42ZM24.5 40.5V28.6213L16.9401 21.0614C16.9396 21.0609 16.9391 21.0604 16.9386 21.0599L16 20.1213L7.5 28.6213V40.5H14.5V34C14.5 33.1716 15.1716 32.5 16 32.5C16.8284 32.5 17.5 33.1716 17.5 34V40.5H24.5Z" fill="#F765A3"/>
<path fill-rule="evenodd" clip-rule="evenodd" d="M26 12.5C26.8285 12.5 27.5 13.1716 27.5 14V14.02C27.5 14.8484 26.8285 15.52 26 15.52C25.1716 15.52 24.5 14.8484 24.5 14.02V14C24.5 13.1716 25.1716 12.5 26 12.5Z" fill="#F765A3"/>
<path fill-rule="evenodd" clip-rule="evenodd" d="M34 12.5C34.8284 12.5 35.5 13.1716 35.5 14V14.02C35.5 14.8484 34.8284 15.52 34 15.52C33.1716 15.52 32.5 14.8484 32.5 14.02V14C32.5 13.1716 33.1716 12.5 34 12.5Z" fill="#F765A3"/>
<path fill-rule="evenodd" clip-rule="evenodd" d="M34 20.5C34.8284 20.5 35.5 21.1716 35.5 22V22.02C35.5 22.8484 34.8284 23.52 34 23.52C33.1716 23.52 32.5 22.8484 32.5 22.02V22C32.5 21.1716 33.1716 20.5 34 20.5Z" fill="#F765A3"/>
<path fill-rule="evenodd" clip-rule="evenodd" d="M34 28.5C34.8284 28.5 35.5 29.1716 35.5 30V30.02C35.5 30.8484 34.8284 31.52 34 31.52C33.1716 31.52 32.5 30.8484 32.5 30.02V30C32.5 29.1716 33.1716 28.5 34 28.5Z" fill="#F765A3"/>
</svg>
