<svg width="48" height="48" viewBox="0 0 48 48" fill="none" xmlns="http://www.w3.org/2000/svg">
<path fill-rule="evenodd" clip-rule="evenodd" d="M34.0567 34.025C34.0611 34.0146 34.0625 34.0048 34.0625 34C34.0625 33.9952 34.0611 33.9854 34.0567 33.975C34.053 33.9661 34.0484 33.96 34.0442 33.9558C34.04 33.9517 34.0339 33.9471 34.025 33.9433C34.0146 33.9389 34.0048 33.9375 34 33.9375C33.9952 33.9375 33.9854 33.9389 33.975 33.9433C33.9661 33.9471 33.96 33.9517 33.9558 33.9558C33.9517 33.96 33.9471 33.9661 33.9433 33.975C33.9389 33.9854 33.9375 33.9952 33.9375 34C33.9375 34.0048 33.9389 34.0146 33.9433 34.025C33.9471 34.0339 33.9517 34.04 33.9558 34.0442C33.96 34.0484 33.9661 34.0529 33.975 34.0567C33.9854 34.0611 33.9952 34.0625 34 34.0625C34.0048 34.0625 34.0146 34.0611 34.025 34.0567C34.0339 34.0529 34.04 34.0484 34.0442 34.0442C34.0484 34.04 34.053 34.0339 34.0567 34.025ZM29.9375 34C29.9375 31.7563 31.7563 29.9375 34 29.9375C36.2437 29.9375 38.0625 31.7563 38.0625 34C38.0625 36.2437 36.2437 38.0625 34 38.0625C31.7563 38.0625 29.9375 36.2437 29.9375 34Z" fill="#16BFD6"/>
<path fill-rule="evenodd" clip-rule="evenodd" d="M14.0567 14.025C14.0611 14.0146 14.0625 14.0048 14.0625 14C14.0625 13.9952 14.0611 13.9854 14.0567 13.975C14.0529 13.9661 14.0484 13.96 14.0442 13.9558C14.04 13.9517 14.0339 13.9471 14.025 13.9433C14.0146 13.9389 14.0048 13.9375 14 13.9375C13.9952 13.9375 13.9854 13.9389 13.975 13.9433C13.9661 13.9471 13.96 13.9517 13.9558 13.9558C13.9517 13.96 13.9471 13.9661 13.9433 13.975C13.9389 13.9854 13.9375 13.9952 13.9375 14C13.9375 14.0048 13.9389 14.0146 13.9433 14.025C13.9471 14.0339 13.9517 14.04 13.9558 14.0442C13.96 14.0484 13.9661 14.0529 13.975 14.0567C13.9854 14.0611 13.9952 14.0625 14 14.0625C14.0048 14.0625 14.0146 14.0611 14.025 14.0567C14.0339 14.0529 14.04 14.0484 14.0442 14.0442C14.0484 14.04 14.0529 14.0339 14.0567 14.025ZM9.9375 14C9.9375 11.7563 11.7563 9.9375 14 9.9375C16.2437 9.9375 18.0625 11.7563 18.0625 14C18.0625 16.2437 16.2437 18.0625 14 18.0625C11.7563 18.0625 9.9375 16.2437 9.9375 14Z" fill="#16BFD6"/>
<path fill-rule="evenodd" clip-rule="evenodd" d="M37.0607 10.9393C37.6464 11.5251 37.6464 12.4749 37.0607 13.0607L13.0607 37.0607C12.4749 37.6464 11.5251 37.6464 10.9393 37.0607C10.3536 36.4749 10.3536 35.5251 10.9393 34.9393L34.9393 10.9393C35.5251 10.3536 36.4749 10.3536 37.0607 10.9393Z" fill="#16BFD6"/>
</svg>
