<svg xmlns="http://www.w3.org/2000/svg"
     width="24"
     height="24"
     enableBackground="new 0 0 512 512"
     viewBox="0 0 32 32">
    <g>
        <path d="M16 30c7.72 0 14-6.28 14-14S23.72 2 16 2 2 8.28 2 16s6.28 14 14 14zm0-26c6.62 0 12 5.38 12 12s-5.38 12-12 12S4 22.62 4 16 9.38 4 16 4z" data-original="#000000"></path>
        <path d="M10 15h12a1 1 0 100-2H11.869l.963-1.445a1 1 0 00-1.664-1.11l-2 3A1 1 0 0010 15zM10 19h10.132l-.964 1.445a1 1 0 101.664 1.11l2-3A1.001 1.001 0 0022 17H10a1 1 0 000 2z" data-original="#000000"></path>
    </g>
</svg>