<svg width="116" height="38" viewBox="0 0 116 38" fill="none" xmlns="http://www.w3.org/2000/svg">
<path d="M8.2915 0.619489C8.7935 0.867789 9.54149 1.37859 9.85249 1.60299C13.6745 4.07749 21.5455 9.08069 22.5065 9.70179C23.9805 10.6545 24.2205 10.9454 24.9645 12.0836C25.4545 12.8331 25.5895 17.3756 25.7055 19.5432L0 3.12599L4.6263 0.455089C6.2943 -0.508011 7.6635 0.309089 8.2915 0.619489Z" fill="white"/>
<path d="M18.4382 37.3789C17.9362 37.1304 17.1882 36.6197 16.8772 36.3953C13.0552 33.921 5.18394 28.9177 4.22294 28.2967C2.74904 27.3438 2.50924 27.0529 1.76514 25.9148C1.27494 25.1653 1.13974 20.6227 1.02344 18.4551L26.7292 34.8724L22.1032 37.5433C20.4352 38.5064 19.0662 37.6893 18.4382 37.3789Z" fill="white"/>
<g filter="url(#filter0_i_1102_3931)">
<path d="M17.8643 10.8817C15.8223 6.02585 11.7693 2.89685 9.86133 1.60645C13.5953 3.99195 21.4243 8.99725 22.8643 9.93435C24.6663 11.1056 25.0703 12.0748 25.2453 12.9825C25.4203 13.8902 25.7573 20.2523 25.8493 21.2854C25.9413 22.3185 25.7323 23.0988 25.1213 23.4514L19.5053 26.6936C19.0383 21.619 18.8723 13.2785 17.8643 10.8817Z" fill="white"/>
</g>
<g filter="url(#filter1_i_1102_3931)">
<path d="M8.86551 27.1166C10.9075 31.9724 14.9595 35.1016 16.8675 36.3919C13.1335 34.0066 5.30561 29.0012 3.86441 28.064C2.06311 26.8927 1.65891 25.9236 1.48391 25.0159C1.30901 24.1083 0.972415 17.7461 0.880215 16.713C0.787915 15.6799 0.997214 14.8997 1.60801 14.5469L7.22352 11.3047C7.69052 16.3794 7.85751 24.7199 8.86551 27.1166Z" fill="white"/>
</g>
<path d="M8.74019 27.1688C10.1142 30.4353 12.3892 32.924 14.3192 34.6028C10.3542 32.0682 5.09298 28.7016 3.93798 27.9505C3.04728 27.3713 2.51059 26.8476 2.17499 26.3639C1.84079 25.8818 1.70159 25.4318 1.61639 24.99C1.57449 24.7724 1.52099 24.2135 1.46309 23.4702C1.40579 22.731 1.34439 21.8189 1.28569 20.9026C1.24519 20.2716 1.20599 19.6379 1.16969 19.0571C1.10129 17.9533 1.04478 17.0407 1.01448 16.7008C0.923385 15.679 1.13729 14.9745 1.67539 14.6638L7.10819 11.5273C7.23619 12.9724 7.34219 14.661 7.45119 16.3954C7.53119 17.6734 7.61319 18.9762 7.70619 20.2248C7.81919 21.7351 7.95019 23.1644 8.11519 24.3668C8.28019 25.5654 8.48119 26.5518 8.74019 27.1688Z" stroke="url(#paint0_linear_1102_3931)" stroke-width="0.429185"/>
<path d="M42.3622 13.368C42.9603 12.4506 43.7088 11.7326 44.606 11.214C45.5032 10.6757 46.5006 10.4064 47.5966 10.4064V15.8209H46.1912C44.9155 15.8209 43.9578 16.1001 43.3199 16.6585C42.682 17.197 42.3622 18.1541 42.3622 19.5303V27.2781H37.2471V10.5858H42.3622V13.368ZM59.3464 22.9405V27.2781H56.743C54.8882 27.2781 53.443 26.8293 52.4058 25.9319C51.3686 25.0145 50.85 23.5287 50.85 21.4747V14.8337H48.8153V10.5858H50.85V6.51758H55.9651V10.5858H59.3153V14.8337H55.9651V21.5345C55.9651 22.0331 56.0844 22.392 56.3247 22.6113C56.5633 22.8307 56.9626 22.9405 57.5209 22.9405H59.3464ZM77.9296 18.6627C77.9296 19.1414 77.9002 19.6399 77.8397 20.1585H66.2628C66.3423 21.1954 66.6725 21.9932 67.2499 22.5515C67.848 23.09 68.5758 23.3593 69.4349 23.3593C70.7107 23.3593 71.5975 22.8209 72.0971 21.7439H77.5407C77.2624 22.8407 76.7541 23.828 76.016 24.7055C75.2968 25.5829 74.3893 26.2709 73.2933 26.7695C72.1956 27.268 70.97 27.5175 69.613 27.5175C67.9777 27.5175 66.5221 27.1683 65.2464 26.4704C63.9689 25.7724 62.9732 24.7751 62.254 23.479C61.5366 22.1826 61.1771 20.6669 61.1771 18.932C61.1771 17.197 61.5263 15.6813 62.2246 14.3849C62.942 13.0888 63.9395 12.0915 65.217 11.3936C66.4927 10.6956 67.9586 10.3466 69.613 10.3466C71.2293 10.3466 72.6641 10.6856 73.9208 11.3637C75.1776 12.0417 76.1543 13.0089 76.8527 14.2653C77.5701 15.5217 77.9296 16.9876 77.9296 18.6627ZM72.6952 17.3166C72.6952 16.4391 72.3961 15.7411 71.798 15.2226C71.1999 14.704 70.4514 14.4449 69.5542 14.4449C68.6968 14.4449 67.969 14.6942 67.3709 15.1927C66.7918 15.6913 66.4322 16.3992 66.2939 17.3166H72.6952ZM79.6116 18.932C79.6116 17.197 79.9608 15.6813 80.6592 14.3849C81.3766 13.0888 82.3637 12.0915 83.6204 11.3936C84.8962 10.6956 86.3517 10.3466 87.987 10.3466C90.0822 10.3466 91.8264 10.8951 93.2232 11.9919C94.639 13.0888 95.5655 14.6342 96.0046 16.6286H90.5593C90.1012 15.3523 89.2144 14.7141 87.8971 14.7141C86.9602 14.7141 86.2117 15.083 85.6551 15.8209C85.095 16.5389 84.8167 17.5759 84.8167 18.932C84.8167 20.288 85.095 21.3351 85.6551 22.073C86.2117 22.7909 86.9602 23.1498 87.8971 23.1498C89.2144 23.1498 90.1012 22.5116 90.5593 21.2353H96.0046C95.5655 23.1898 94.639 24.7253 93.2232 25.8422C91.8057 26.9589 90.0614 27.5175 87.987 27.5175C86.3517 27.5175 84.8962 27.1683 83.6204 26.4704C82.3637 25.7724 81.3766 24.7751 80.6592 23.479C79.9608 22.1826 79.6116 20.6669 79.6116 18.932ZM106.339 27.5175C104.703 27.5175 103.227 27.1683 101.911 26.4704C100.615 25.7724 99.5881 24.7751 98.831 23.479C98.0928 22.1826 97.7229 20.6669 97.7229 18.932C97.7229 17.2168 98.1015 15.7112 98.8604 14.415C99.6176 13.0986 100.655 12.0915 101.972 11.3936C103.287 10.6956 104.764 10.3466 106.399 10.3466C108.034 10.3466 109.509 10.6956 110.826 11.3936C112.142 12.0915 113.179 13.0986 113.938 14.415C114.695 15.7112 115.074 17.2168 115.074 18.932C115.074 20.647 114.685 22.1627 113.907 23.479C113.15 24.7751 112.102 25.7724 110.766 26.4704C109.45 27.1683 107.974 27.5175 106.339 27.5175ZM106.339 23.09C107.315 23.09 108.143 22.7311 108.821 22.0132C109.519 21.2951 109.869 20.2681 109.869 18.932C109.869 17.5958 109.53 16.5688 108.852 15.8508C108.193 15.1329 107.376 14.7739 106.399 14.7739C105.402 14.7739 104.574 15.1329 103.915 15.8508C103.258 16.5487 102.928 17.5759 102.928 18.932C102.928 20.2681 103.248 21.2951 103.886 22.0132C104.544 22.7311 105.362 23.09 106.339 23.09Z" fill="white"/>
<defs>
<filter id="filter0_i_1102_3931" x="8.14459" y="-0.110295" width="17.7255" height="26.8037" filterUnits="userSpaceOnUse" color-interpolation-filters="sRGB">
<feFlood flood-opacity="0" result="BackgroundImageFix"/>
<feBlend mode="normal" in="SourceGraphic" in2="BackgroundImageFix" result="shape"/>
<feColorMatrix in="SourceAlpha" type="matrix" values="0 0 0 0 0 0 0 0 0 0 0 0 0 0 0 0 0 0 127 0" result="hardAlpha"/>
<feOffset dx="-1.71674" dy="-1.71674"/>
<feGaussianBlur stdDeviation="2.57511"/>
<feComposite in2="hardAlpha" operator="arithmetic" k2="-1" k3="1"/>
<feColorMatrix type="matrix" values="0 0 0 0 1 0 0 0 0 1 0 0 0 0 1 0 0 0 0.12 0"/>
<feBlend mode="normal" in2="shape" result="effect1_innerShadow_1102_3931"/>
</filter>
<filter id="filter1_i_1102_3931" x="0.859375" y="11.3047" width="17.725" height="26.8037" filterUnits="userSpaceOnUse" color-interpolation-filters="sRGB">
<feFlood flood-opacity="0" result="BackgroundImageFix"/>
<feBlend mode="normal" in="SourceGraphic" in2="BackgroundImageFix" result="shape"/>
<feColorMatrix in="SourceAlpha" type="matrix" values="0 0 0 0 0 0 0 0 0 0 0 0 0 0 0 0 0 0 127 0" result="hardAlpha"/>
<feOffset dx="1.71674" dy="1.71674"/>
<feGaussianBlur stdDeviation="2.57511"/>
<feComposite in2="hardAlpha" operator="arithmetic" k2="-1" k3="1"/>
<feColorMatrix type="matrix" values="0 0 0 0 1 0 0 0 0 1 0 0 0 0 1 0 0 0 0.12 0"/>
<feBlend mode="normal" in2="shape" result="effect1_innerShadow_1102_3931"/>
</filter>
<linearGradient id="paint0_linear_1102_3931" x1="15.2802" y1="37.3083" x2="2.00629" y2="14.3167" gradientUnits="userSpaceOnUse">
<stop stop-color="#453434" stop-opacity="0"/>
<stop offset="1" stop-color="#2E2929" stop-opacity="0.08"/>
</linearGradient>
</defs>
</svg>
