<svg width="228" height="113" viewBox="0 0 228 113" fill="none" xmlns="http://www.w3.org/2000/svg">
<path d="M24.3615 1.82608C25.8387 2.55804 28.0349 4.06374 28.9488 4.72509C40.18 12.0191 63.3062 26.7667 66.129 28.5975C70.4598 31.4059 71.1643 32.2633 73.3508 35.6182C74.7922 37.8276 75.1883 51.2175 75.5292 57.6067L0 9.21432L13.593 1.34149C18.4951 -1.49744 22.5175 0.911028 24.3615 1.82608Z" fill="url(#paint0_linear_105_4)"/>
<path d="M54.182 110.178C52.7048 109.446 50.507 107.94 49.5947 107.279C38.3635 99.9852 15.2373 85.2371 12.4129 83.4064C8.08206 80.5978 7.37759 79.7402 5.1911 76.3856C3.75128 74.1762 3.35357 60.786 3.0127 54.3966L78.5419 102.79L64.9489 110.663C60.0467 113.502 56.0244 111.093 54.182 110.178Z" fill="url(#paint1_linear_105_4)"/>
<g filter="url(#filter0_i_105_4)">
<path d="M52.4906 32.0752C46.4911 17.7618 34.583 8.53857 28.978 4.73497C39.9478 11.7666 62.9507 26.5203 67.1841 29.2825C72.4775 32.7352 73.6657 35.5919 74.1786 38.2676C74.6932 40.9432 75.6818 59.6961 75.9528 62.7413C76.2239 65.7865 75.6087 68.0867 73.8134 69.126L57.3132 78.6828C55.9416 63.7247 55.453 39.14 52.4906 32.0752Z" fill="url(#paint2_radial_105_4)"/>
</g>
<path d="M52.8591 31.92C48.8221 22.2913 42.1376 14.9557 36.466 10.0073C48.1176 17.4789 63.5757 27.402 66.9698 29.6158C69.5865 31.3229 71.1627 32.8666 72.148 34.2928C73.1317 35.714 73.5407 37.0401 73.7907 38.3423C73.9141 38.984 74.0699 40.6312 74.2403 42.8224C74.4091 45.0015 74.5893 47.6896 74.763 50.3908C74.8815 52.2508 74.9968 54.1189 75.1023 55.8307C75.3036 59.0842 75.4707 61.7744 75.5584 62.7762C75.8262 65.7885 75.198 67.8648 73.617 68.7804L57.6557 78.0257C57.2775 73.7665 56.9658 68.7892 56.6461 63.6765C56.4107 59.9096 56.1705 56.0692 55.8961 52.3888C55.5634 47.9366 55.1819 43.7241 54.6966 40.1798C54.2112 36.6467 53.6204 33.7391 52.8591 31.92Z" stroke="url(#paint3_linear_105_4)" stroke-width="0.429185"/>
<g filter="url(#filter1_i_105_4)">
<path d="M26.0529 79.9272C32.054 94.2407 43.9621 103.464 49.5671 107.268C38.5957 100.237 15.5944 85.4824 11.3594 82.72C6.06766 79.2674 4.87944 76.4108 4.36487 73.7352C3.85193 71.0596 2.86176 52.3062 2.59231 49.261C2.32123 46.2158 2.93481 43.916 4.73011 42.876L21.2303 33.3192C22.6036 48.2777 23.0921 72.8625 26.0529 79.9272Z" fill="url(#paint4_radial_105_4)"/>
</g>
<path d="M25.6861 80.0829C29.7231 89.7114 36.4075 97.0468 42.0791 101.995C30.4292 94.5245 14.9695 84.601 11.5769 82.3869C8.95861 80.6797 7.38244 79.136 6.39552 77.7102C5.41508 76.2892 5.00443 74.963 4.75445 73.6607C4.63108 73.019 4.47524 71.3718 4.3048 69.1807C4.13598 67.0018 3.9558 64.3134 3.78374 61.6125C3.66362 59.7525 3.54836 57.8846 3.44285 56.1727C3.24157 52.9191 3.07601 50.2291 2.98674 49.2272C2.7189 46.2152 3.34709 44.1387 4.92813 43.2229L20.891 33.9778C21.2676 38.2374 21.5793 43.2148 21.8991 48.327C22.1344 52.0939 22.3747 55.9341 22.649 59.6145C22.9817 64.0664 23.3648 68.2793 23.8502 71.8235C24.3339 75.3566 24.9248 78.2642 25.6861 80.0829Z" stroke="url(#paint5_linear_105_4)" stroke-width="0.429185"/>
<g filter="url(#filter2_ii_105_4)">
<g filter="url(#filter3_i_105_4)">
<path d="M103.489 49.6806C104.506 48.1165 105.778 46.8922 107.302 46.0082C108.828 45.09 110.523 44.6309 112.388 44.6309V53.8632H109.997C107.828 53.8632 106.2 54.3393 105.116 55.2914C104.032 56.2095 103.489 57.8418 103.489 60.188V73.3989H94.7953V44.9371H103.489V49.6806ZM132.355 66.0029V73.3989H127.932C124.78 73.3989 122.322 72.6337 120.559 71.1036C118.797 69.5393 117.917 67.0059 117.917 63.5035V52.1799H114.459V44.9371H117.917V38H126.611V44.9371H132.305V52.1799H126.611V63.6056C126.611 64.4557 126.814 65.0676 127.221 65.4418C127.627 65.8158 128.305 66.0029 129.255 66.0029H132.355ZM163.944 58.7089C163.944 59.5249 163.893 60.375 163.791 61.2592H144.114C144.25 63.0274 144.809 64.3877 145.793 65.3398C146.809 66.2579 148.046 66.717 149.503 66.717C151.674 66.717 153.182 65.7989 154.029 63.9625H163.283C162.809 65.8328 161.944 67.516 160.691 69.0123C159.47 70.5084 157.928 71.6817 156.063 72.5318C154.198 73.3818 152.113 73.807 149.808 73.807C147.03 73.807 144.556 73.2119 142.385 72.0217C140.215 70.8314 138.52 69.1312 137.301 66.921C136.081 64.7107 135.47 62.1263 135.47 59.168C135.47 56.2095 136.065 53.6251 137.249 51.4149C138.47 49.2045 140.165 47.5044 142.335 46.3142C144.504 45.1241 146.995 44.529 149.808 44.529C152.555 44.529 154.995 45.107 157.131 46.2632C159.267 47.4193 160.928 49.0685 162.114 51.2109C163.333 53.3532 163.944 55.8525 163.944 58.7089ZM155.047 56.4135C155.047 54.9174 154.537 53.7272 153.521 52.843C152.503 51.9589 151.232 51.5168 149.708 51.5168C148.25 51.5168 147.013 51.942 145.995 52.7921C145.013 53.6422 144.403 54.8494 144.164 56.4135H155.047ZM166.802 59.168C166.802 56.2095 167.395 53.6251 168.583 51.4149C169.802 49.2045 171.48 47.5044 173.616 46.3142C175.785 45.1241 178.259 44.529 181.04 44.529C184.598 44.529 187.565 45.4641 189.936 47.3344C192.344 49.2046 193.92 51.8399 194.667 55.2404H185.413C184.632 53.0641 183.124 51.9759 180.887 51.9759C179.293 51.9759 178.022 52.6051 177.074 53.8632C176.124 55.0873 175.65 56.8555 175.65 59.168C175.65 61.4803 176.124 63.2655 177.074 64.5237C178.022 65.7478 179.293 66.3599 180.887 66.3599C183.124 66.3599 184.632 65.2717 185.413 63.0954H194.667C193.92 66.4279 192.344 69.0462 189.936 70.9506C187.529 72.8548 184.564 73.807 181.04 73.807C178.259 73.807 175.785 73.2119 173.616 72.0217C171.48 70.8314 169.802 69.1312 168.583 66.921C167.395 64.7107 166.802 62.1263 166.802 59.168ZM212.232 73.807C209.451 73.807 206.943 73.2119 204.706 72.0217C202.502 70.8314 200.757 69.1312 199.47 66.921C198.215 64.7107 197.588 62.1263 197.588 59.168C197.588 56.2436 198.231 53.6762 199.518 51.4659C200.807 49.2216 202.57 47.5044 204.809 46.3142C207.045 45.1241 209.553 44.529 212.334 44.529C215.113 44.529 217.621 45.1241 219.858 46.3142C222.096 47.5044 223.857 49.2216 225.146 51.4659C226.433 53.6762 227.078 56.2436 227.078 59.168C227.078 62.0922 226.417 64.6768 225.096 66.921C223.807 69.1312 222.028 70.8314 219.757 72.0217C217.52 73.2119 215.011 73.807 212.232 73.807ZM212.232 66.2579C213.892 66.2579 215.3 65.6458 216.452 64.4216C217.637 63.1975 218.231 61.4462 218.231 59.168C218.231 56.8896 217.655 55.1385 216.502 53.9142C215.384 52.6901 213.993 52.078 212.334 52.078C210.638 52.078 209.232 52.6901 208.113 53.9142C206.995 55.1044 206.435 56.8555 206.435 59.168C206.435 61.4462 206.977 63.1975 208.062 64.4216C209.18 65.6458 210.569 66.2579 212.232 66.2579Z" fill="#5833A2"/>
</g>
</g>
<defs>
<filter id="filter0_i_105_4" x="27.2613" y="3.01823" width="48.7528" height="75.6646" filterUnits="userSpaceOnUse" color-interpolation-filters="sRGB">
<feFlood flood-opacity="0" result="BackgroundImageFix"/>
<feBlend mode="normal" in="SourceGraphic" in2="BackgroundImageFix" result="shape"/>
<feColorMatrix in="SourceAlpha" type="matrix" values="0 0 0 0 0 0 0 0 0 0 0 0 0 0 0 0 0 0 127 0" result="hardAlpha"/>
<feOffset dx="-1.71674" dy="-1.71674"/>
<feGaussianBlur stdDeviation="2.57511"/>
<feComposite in2="hardAlpha" operator="arithmetic" k2="-1" k3="1"/>
<feColorMatrix type="matrix" values="0 0 0 0 1 0 0 0 0 1 0 0 0 0 1 0 0 0 0.12 0"/>
<feBlend mode="normal" in2="shape" result="effect1_innerShadow_105_4"/>
</filter>
<filter id="filter1_i_105_4" x="2.53104" y="33.3192" width="48.7528" height="75.6654" filterUnits="userSpaceOnUse" color-interpolation-filters="sRGB">
<feFlood flood-opacity="0" result="BackgroundImageFix"/>
<feBlend mode="normal" in="SourceGraphic" in2="BackgroundImageFix" result="shape"/>
<feColorMatrix in="SourceAlpha" type="matrix" values="0 0 0 0 0 0 0 0 0 0 0 0 0 0 0 0 0 0 127 0" result="hardAlpha"/>
<feOffset dx="1.71674" dy="1.71674"/>
<feGaussianBlur stdDeviation="2.57511"/>
<feComposite in2="hardAlpha" operator="arithmetic" k2="-1" k3="1"/>
<feColorMatrix type="matrix" values="0 0 0 0 1 0 0 0 0 1 0 0 0 0 1 0 0 0 0.12 0"/>
<feBlend mode="normal" in2="shape" result="effect1_innerShadow_105_4"/>
</filter>
<filter id="filter2_ii_105_4" x="93.0786" y="36.2833" width="135.716" height="39.2405" filterUnits="userSpaceOnUse" color-interpolation-filters="sRGB">
<feFlood flood-opacity="0" result="BackgroundImageFix"/>
<feBlend mode="normal" in="SourceGraphic" in2="BackgroundImageFix" result="shape"/>
<feColorMatrix in="SourceAlpha" type="matrix" values="0 0 0 0 0 0 0 0 0 0 0 0 0 0 0 0 0 0 127 0" result="hardAlpha"/>
<feOffset dx="-1.71674" dy="-1.71674"/>
<feGaussianBlur stdDeviation="0.858369"/>
<feComposite in2="hardAlpha" operator="arithmetic" k2="-1" k3="1"/>
<feColorMatrix type="matrix" values="0 0 0 0 0.321569 0 0 0 0 0.0901961 0 0 0 0 0.784314 0 0 0 0.24 0"/>
<feBlend mode="normal" in2="shape" result="effect1_innerShadow_105_4"/>
<feColorMatrix in="SourceAlpha" type="matrix" values="0 0 0 0 0 0 0 0 0 0 0 0 0 0 0 0 0 0 127 0" result="hardAlpha"/>
<feOffset dx="1.71674" dy="1.71674"/>
<feGaussianBlur stdDeviation="1.71674"/>
<feComposite in2="hardAlpha" operator="arithmetic" k2="-1" k3="1"/>
<feColorMatrix type="matrix" values="0 0 0 0 0.980392 0 0 0 0 0.486275 0 0 0 0 0.0745098 0 0 0 0.04 0"/>
<feBlend mode="normal" in2="effect1_innerShadow_105_4" result="effect2_innerShadow_105_4"/>
</filter>
<filter id="filter3_i_105_4" x="94.7953" y="38" width="132.282" height="39.807" filterUnits="userSpaceOnUse" color-interpolation-filters="sRGB">
<feFlood flood-opacity="0" result="BackgroundImageFix"/>
<feBlend mode="normal" in="SourceGraphic" in2="BackgroundImageFix" result="shape"/>
<feColorMatrix in="SourceAlpha" type="matrix" values="0 0 0 0 0 0 0 0 0 0 0 0 0 0 0 0 0 0 127 0" result="hardAlpha"/>
<feOffset dy="4"/>
<feGaussianBlur stdDeviation="2"/>
<feComposite in2="hardAlpha" operator="arithmetic" k2="-1" k3="1"/>
<feColorMatrix type="matrix" values="0 0 0 0 0.262745 0 0 0 0 0.0470588 0 0 0 0 0.694118 0 0 0 1 0"/>
<feBlend mode="normal" in2="shape" result="effect1_innerShadow_105_4"/>
</filter>
<linearGradient id="paint0_linear_105_4" x1="2.10047" y1="7.99848" x2="62.4849" y2="57.5197" gradientUnits="userSpaceOnUse">
<stop stop-color="#7733FF"/>
<stop offset="1" stop-color="#330099"/>
</linearGradient>
<linearGradient id="paint1_linear_105_4" x1="76.4431" y1="104.005" x2="16.0587" y2="54.4841" gradientUnits="userSpaceOnUse">
<stop stop-color="#FE7919"/>
<stop offset="1" stop-color="#B33C00"/>
</linearGradient>
<radialGradient id="paint2_radial_105_4" cx="0" cy="0" r="1" gradientUnits="userSpaceOnUse" gradientTransform="translate(49.8739 20.8206) rotate(63.3113) scale(83.3308 59.1408)">
<stop stop-color="#7C4DFF"/>
<stop offset="1" stop-color="#3F1F99"/>
</radialGradient>
<linearGradient id="paint3_linear_105_4" x1="33.6432" y1="2.0328" x2="72.833" y2="69.6953" gradientUnits="userSpaceOnUse">
<stop stop-color="#1C1A1A" stop-opacity="0.12"/>
<stop offset="1" stop-color="#0E0D0D" stop-opacity="0"/>
</linearGradient>
<radialGradient id="paint4_radial_105_4" cx="0" cy="0" r="1" gradientUnits="userSpaceOnUse" gradientTransform="translate(28.6712 91.1826) rotate(-117.763) scale(78.3096 55.5825)">
<stop stop-color="#FF8214"/>
<stop offset="1" stop-color="#CC4400"/>
</radialGradient>
<linearGradient id="paint5_linear_105_4" x1="44.9036" y1="109.97" x2="5.71376" y2="42.3079" gradientUnits="userSpaceOnUse">
<stop stop-color="#453434" stop-opacity="0"/>
<stop offset="1" stop-color="#2E2929" stop-opacity="0.08"/>
</linearGradient>
</defs>
</svg>
