<svg width="231" height="112" viewBox="0 0 231 112" fill="none" xmlns="http://www.w3.org/2000/svg">
<path d="M24.1935 1.82588C25.6594 2.55784 27.8408 4.06357 28.7491 4.72479C39.9021 12.0185 62.869 26.7655 65.6733 28.5961C69.9735 31.4042 70.6742 32.2617 72.8451 35.6166C74.2753 37.8258 74.6698 51.2151 75.0081 57.6039L0 9.21389L13.4995 1.34147C18.3668 -1.49738 22.3615 0.910978 24.1935 1.82588Z" fill="url(#paint0_linear_202_595)"/>
<path d="M53.8069 110.174C52.3415 109.443 50.1588 107.936 49.2515 107.276C38.0983 99.982 15.1309 85.2352 12.3268 83.4046C8.02609 80.5961 7.32622 79.7383 5.15494 76.3841C3.72442 74.1748 3.32999 60.7853 2.99072 54.3964L78.0001 102.787L64.5014 110.659C59.6336 113.497 55.638 111.09 53.8069 110.174Z" fill="url(#paint1_linear_202_595)"/>
<g filter="url(#filter0_i_202_595)">
<path d="M52.1282 32.0738C46.1701 17.7612 34.3432 8.53822 28.7768 4.73474C39.672 11.7661 62.5164 26.5191 66.7204 29.2813C71.9762 32.7339 73.1563 35.5903 73.6678 38.2659C74.1776 40.9415 75.1605 59.6936 75.4282 62.7387C75.6976 65.7837 75.0867 68.0838 73.3038 69.123L56.9174 78.6796C55.5546 63.7221 55.0687 39.1384 52.1282 32.0738Z" fill="url(#paint2_radial_202_595)"/>
</g>
<path d="M52.4905 31.9201C48.4827 22.2917 41.844 14.9565 36.2114 10.0083C47.782 17.4795 63.1336 27.4023 66.5055 29.6159C69.1029 31.3228 70.6694 32.8665 71.6475 34.2926C72.6239 35.7139 73.0312 37.0398 73.2797 38.342C73.4015 38.9834 73.5571 40.6307 73.7254 42.8219C73.8938 45.001 74.0734 47.6887 74.2433 50.3898C74.362 52.25 74.4774 54.1177 74.5816 55.8295C74.7804 59.083 74.9472 61.7728 75.0354 62.7747C75.3015 65.7867 74.6762 67.8631 73.1065 68.7786L57.2541 78.0234C56.8805 73.7645 56.571 68.7875 56.252 63.675C56.0195 59.9081 55.7806 56.068 55.508 52.3877C55.1777 47.9359 54.7977 43.7234 54.3151 40.1794C53.8357 36.6464 53.2489 33.7391 52.4905 31.9201Z" stroke="url(#paint3_linear_202_595)" stroke-width="0.429185"/>
<g filter="url(#filter1_i_202_595)">
<path d="M25.8716 79.9261C31.8302 94.2382 43.6563 103.462 49.2231 107.266C38.3272 100.235 15.4845 85.4811 11.2792 82.7185C6.02308 79.2662 4.84349 76.4098 4.33314 73.7345C3.82263 71.0592 2.84025 52.3066 2.5712 49.2614C2.30216 46.2164 2.91288 43.9167 4.69518 42.8768L21.0817 33.3207C22.4451 48.278 22.931 72.8617 25.8716 79.9261Z" fill="url(#paint4_radial_202_595)"/>
</g>
<path d="M25.5082 80.0801C29.5163 89.7085 36.1555 97.0431 41.7881 101.992C30.2174 94.5209 14.8655 84.5981 11.4949 82.3843C8.89604 80.6771 7.32988 79.1334 6.35071 77.7076C5.37554 76.2866 4.96925 74.9604 4.72073 73.6582C4.59839 73.0168 4.44222 71.3693 4.27339 69.1786C4.10616 66.9995 3.9269 64.3115 3.75582 61.6104C3.6375 59.7505 3.52301 57.8828 3.41735 56.1709C3.21773 52.9175 3.05275 50.2274 2.96441 49.2258C2.69857 46.2137 3.32259 44.1371 4.89277 43.2216L20.7451 33.9768C21.1198 38.2361 21.4291 43.2133 21.7462 48.3256C21.9806 52.0921 22.2189 55.9325 22.4918 59.6127C22.8216 64.0643 23.2019 68.2771 23.684 71.8214C24.1644 75.3541 24.7515 78.2614 25.5082 80.0801Z" stroke="url(#paint5_linear_202_595)" stroke-width="0.429185"/>
<g filter="url(#filter2_ii_202_595)">
<g filter="url(#filter3_i_202_595)">
<path d="M106.694 53.6806C107.711 52.1165 108.983 50.8922 110.507 50.0082C112.033 49.09 113.728 48.6309 115.593 48.6309V57.8632H113.202C111.033 57.8632 109.405 58.3393 108.321 59.2914C107.237 60.2095 106.694 61.8418 106.694 64.188V77.3989H98V48.9371H106.694V53.6806ZM135.56 70.0029V77.3989H131.137C127.985 77.3989 125.527 76.6337 123.764 75.1036C122.002 73.5393 121.122 71.0059 121.122 67.5035V56.1799H117.664V48.9371H121.122V42H129.816V48.9371H135.51V56.1799H129.816V67.6056C129.816 68.4557 130.019 69.0676 130.426 69.4418C130.832 69.8158 131.51 70.0029 132.46 70.0029H135.56ZM167.149 62.7089C167.149 63.5249 167.098 64.375 166.996 65.2592H147.319C147.455 67.0274 148.014 68.3877 148.998 69.3398C150.014 70.2579 151.251 70.717 152.708 70.717C154.879 70.717 156.387 69.7989 157.234 67.9625H166.488C166.014 69.8328 165.149 71.516 163.896 73.0123C162.675 74.5084 161.133 75.6817 159.268 76.5318C157.403 77.3818 155.318 77.807 153.013 77.807C150.235 77.807 147.761 77.2119 145.59 76.0217C143.42 74.8314 141.725 73.1312 140.506 70.921C139.286 68.7107 138.675 66.1263 138.675 63.168C138.675 60.2095 139.27 57.6251 140.454 55.4149C141.675 53.2045 143.37 51.5044 145.54 50.3142C147.709 49.1241 150.2 48.529 153.013 48.529C155.76 48.529 158.2 49.107 160.336 50.2632C162.472 51.4193 164.133 53.0685 165.319 55.2109C166.538 57.3532 167.149 59.8525 167.149 62.7089ZM158.252 60.4135C158.252 58.9174 157.742 57.7272 156.726 56.843C155.708 55.9589 154.437 55.5168 152.913 55.5168C151.455 55.5168 150.218 55.942 149.2 56.7921C148.218 57.6422 147.608 58.8494 147.369 60.4135H158.252ZM170.007 63.168C170.007 60.2095 170.6 57.6251 171.788 55.4149C173.007 53.2045 174.685 51.5044 176.821 50.3142C178.99 49.1241 181.464 48.529 184.245 48.529C187.803 48.529 190.77 49.4641 193.141 51.3344C195.549 53.2046 197.125 55.8399 197.872 59.2404H188.618C187.837 57.0641 186.329 55.9759 184.092 55.9759C182.498 55.9759 181.227 56.6051 180.279 57.8632C179.329 59.0873 178.855 60.8555 178.855 63.168C178.855 65.4803 179.329 67.2655 180.279 68.5237C181.227 69.7478 182.498 70.3599 184.092 70.3599C186.329 70.3599 187.837 69.2717 188.618 67.0954H197.872C197.125 70.4279 195.549 73.0462 193.141 74.9506C190.734 76.8548 187.769 77.807 184.245 77.807C181.464 77.807 178.99 77.2119 176.821 76.0217C174.685 74.8314 173.007 73.1312 171.788 70.921C170.6 68.7107 170.007 66.1263 170.007 63.168ZM215.437 77.807C212.656 77.807 210.148 77.2119 207.911 76.0217C205.707 74.8314 203.962 73.1312 202.675 70.921C201.42 68.7107 200.793 66.1263 200.793 63.168C200.793 60.2436 201.436 57.6762 202.723 55.4659C204.012 53.2216 205.775 51.5044 208.014 50.3142C210.25 49.1241 212.758 48.529 215.539 48.529C218.318 48.529 220.826 49.1241 223.063 50.3142C225.301 51.5044 227.062 53.2216 228.351 55.4659C229.638 57.6762 230.283 60.2436 230.283 63.168C230.283 66.0922 229.622 68.6768 228.301 70.921C227.012 73.1312 225.233 74.8314 222.962 76.0217C220.725 77.2119 218.216 77.807 215.437 77.807ZM215.437 70.2579C217.097 70.2579 218.505 69.6458 219.657 68.4216C220.842 67.1975 221.436 65.4462 221.436 63.168C221.436 60.8896 220.86 59.1385 219.707 57.9142C218.589 56.6901 217.198 56.078 215.539 56.078C213.843 56.078 212.437 56.6901 211.318 57.9142C210.2 59.1044 209.64 60.8555 209.64 63.168C209.64 65.4462 210.182 67.1975 211.267 68.4216C212.385 69.6458 213.774 70.2579 215.437 70.2579Z" fill="#5833A2"/>
</g>
</g>
<defs>
<filter id="filter0_i_202_595" x="27.0601" y="3.018" width="48.429" height="75.6616" filterUnits="userSpaceOnUse" color-interpolation-filters="sRGB">
<feFlood flood-opacity="0" result="BackgroundImageFix"/>
<feBlend mode="normal" in="SourceGraphic" in2="BackgroundImageFix" result="shape"/>
<feColorMatrix in="SourceAlpha" type="matrix" values="0 0 0 0 0 0 0 0 0 0 0 0 0 0 0 0 0 0 127 0" result="hardAlpha"/>
<feOffset dx="-1.71674" dy="-1.71674"/>
<feGaussianBlur stdDeviation="2.57511"/>
<feComposite in2="hardAlpha" operator="arithmetic" k2="-1" k3="1"/>
<feColorMatrix type="matrix" values="0 0 0 0 1 0 0 0 0 1 0 0 0 0 1 0 0 0 0.12 0"/>
<feBlend mode="normal" in2="shape" result="effect1_innerShadow_202_595"/>
</filter>
<filter id="filter1_i_202_595" x="2.5105" y="33.3207" width="48.4294" height="75.6619" filterUnits="userSpaceOnUse" color-interpolation-filters="sRGB">
<feFlood flood-opacity="0" result="BackgroundImageFix"/>
<feBlend mode="normal" in="SourceGraphic" in2="BackgroundImageFix" result="shape"/>
<feColorMatrix in="SourceAlpha" type="matrix" values="0 0 0 0 0 0 0 0 0 0 0 0 0 0 0 0 0 0 127 0" result="hardAlpha"/>
<feOffset dx="1.71674" dy="1.71674"/>
<feGaussianBlur stdDeviation="2.57511"/>
<feComposite in2="hardAlpha" operator="arithmetic" k2="-1" k3="1"/>
<feColorMatrix type="matrix" values="0 0 0 0 1 0 0 0 0 1 0 0 0 0 1 0 0 0 0.12 0"/>
<feBlend mode="normal" in2="shape" result="effect1_innerShadow_202_595"/>
</filter>
<filter id="filter2_ii_202_595" x="96.2833" y="40.2833" width="135.716" height="39.2405" filterUnits="userSpaceOnUse" color-interpolation-filters="sRGB">
<feFlood flood-opacity="0" result="BackgroundImageFix"/>
<feBlend mode="normal" in="SourceGraphic" in2="BackgroundImageFix" result="shape"/>
<feColorMatrix in="SourceAlpha" type="matrix" values="0 0 0 0 0 0 0 0 0 0 0 0 0 0 0 0 0 0 127 0" result="hardAlpha"/>
<feOffset dx="-1.71674" dy="-1.71674"/>
<feGaussianBlur stdDeviation="0.858369"/>
<feComposite in2="hardAlpha" operator="arithmetic" k2="-1" k3="1"/>
<feColorMatrix type="matrix" values="0 0 0 0 0.321569 0 0 0 0 0.0901961 0 0 0 0 0.784314 0 0 0 0.24 0"/>
<feBlend mode="normal" in2="shape" result="effect1_innerShadow_202_595"/>
<feColorMatrix in="SourceAlpha" type="matrix" values="0 0 0 0 0 0 0 0 0 0 0 0 0 0 0 0 0 0 127 0" result="hardAlpha"/>
<feOffset dx="1.71674" dy="1.71674"/>
<feGaussianBlur stdDeviation="1.71674"/>
<feComposite in2="hardAlpha" operator="arithmetic" k2="-1" k3="1"/>
<feColorMatrix type="matrix" values="0 0 0 0 0.980392 0 0 0 0 0.486275 0 0 0 0 0.0745098 0 0 0 0.04 0"/>
<feBlend mode="normal" in2="effect1_innerShadow_202_595" result="effect2_innerShadow_202_595"/>
</filter>
<filter id="filter3_i_202_595" x="98" y="42" width="132.283" height="39.807" filterUnits="userSpaceOnUse" color-interpolation-filters="sRGB">
<feFlood flood-opacity="0" result="BackgroundImageFix"/>
<feBlend mode="normal" in="SourceGraphic" in2="BackgroundImageFix" result="shape"/>
<feColorMatrix in="SourceAlpha" type="matrix" values="0 0 0 0 0 0 0 0 0 0 0 0 0 0 0 0 0 0 127 0" result="hardAlpha"/>
<feOffset dy="4"/>
<feGaussianBlur stdDeviation="2"/>
<feComposite in2="hardAlpha" operator="arithmetic" k2="-1" k3="1"/>
<feColorMatrix type="matrix" values="0 0 0 0 0.262745 0 0 0 0 0.0470588 0 0 0 0 0.694118 0 0 0 1 0"/>
<feBlend mode="normal" in2="shape" result="effect1_innerShadow_202_595"/>
</filter>
<linearGradient id="paint0_linear_202_595" x1="2.08533" y1="7.998" x2="62.3833" y2="57.1109" gradientUnits="userSpaceOnUse">
<stop stop-color="#6475A1"/>
<stop offset="0.0001" stop-color="white"/>
<stop offset="1" stop-color="#CACACA"/>
</linearGradient>
<linearGradient id="paint1_linear_202_595" x1="75.9157" y1="104.003" x2="15.6164" y2="54.8893" gradientUnits="userSpaceOnUse">
<stop stop-color="#E1E1E1"/>
<stop offset="1" stop-color="white"/>
</linearGradient>
<radialGradient id="paint2_radial_202_595" cx="0" cy="0" r="1" gradientUnits="userSpaceOnUse" gradientTransform="translate(49.5298 20.8197) rotate(63.469) scale(83.2126 58.8141)">
<stop stop-color="#ECECEC"/>
<stop offset="1" stop-color="white"/>
</radialGradient>
<linearGradient id="paint3_linear_202_595" x1="33.4072" y1="2.03431" x2="72.729" y2="69.4592" gradientUnits="userSpaceOnUse">
<stop stop-color="#1C1A1A" stop-opacity="0.12"/>
<stop offset="1" stop-color="#0E0D0D" stop-opacity="0"/>
</linearGradient>
<radialGradient id="paint4_radial_202_595" cx="0" cy="0" r="1" gradientUnits="userSpaceOnUse" gradientTransform="translate(28.4705 91.1808) rotate(-117.602) scale(78.1895 55.2813)">
<stop stop-color="white"/>
<stop offset="1" stop-color="#E7E7E7"/>
</radialGradient>
<linearGradient id="paint5_linear_202_595" x1="44.5922" y1="109.966" x2="5.27081" y2="42.5412" gradientUnits="userSpaceOnUse">
<stop stop-color="#453434" stop-opacity="0"/>
<stop offset="1" stop-color="#2E2929" stop-opacity="0.08"/>
</linearGradient>
</defs>
</svg>
