<svg width="160" height="46" viewBox="0 0 160 46" fill="none" xmlns="http://www.w3.org/2000/svg">
<g filter="url(#filter0_i_75_815)">
<path fill-rule="evenodd" clip-rule="evenodd" d="M74.8361 21.4291H66.8766V12.7133H74.6194C74.8757 12.7108 75.1292 12.7533 75.3658 12.8382C75.6018 12.923 75.8153 13.0483 75.9932 13.2065C76.1726 13.3597 76.3144 13.5426 76.4099 13.744C76.505 13.9455 76.5521 14.1614 76.5482 14.3788V15.5431C76.5573 15.8539 76.4614 16.1602 76.2729 16.4255C76.0843 16.6908 75.8109 16.9037 75.485 17.0388C75.8652 17.149 76.194 17.3606 76.4242 17.6428C76.6544 17.9249 76.7736 18.263 76.7649 18.6073V19.7636C76.7689 19.981 76.7216 20.197 76.6263 20.3984C76.5308 20.5999 76.389 20.7827 76.2095 20.936C76.0316 21.0942 75.8182 21.2195 75.582 21.3042C75.3459 21.3891 75.092 21.4316 74.8361 21.4291ZM73.6505 19.4888C73.7638 19.4848 73.8712 19.4442 73.9516 19.3753C74.0316 19.3064 74.0787 19.2142 74.0834 19.1168V18.4134C74.0787 18.316 74.0316 18.2237 73.9516 18.1548C73.8712 18.0859 73.7638 18.0454 73.6505 18.0414H69.558V19.4888H73.6505ZM73.4342 16.101C73.4921 16.1014 73.5495 16.0916 73.6029 16.0721C73.6565 16.0526 73.7047 16.024 73.7447 15.9879C73.7843 15.9539 73.8157 15.9137 73.8366 15.8691C73.8576 15.8248 73.868 15.777 73.8668 15.729V15.0337C73.8691 14.9844 73.8597 14.9352 73.8383 14.8892C73.8172 14.8433 73.7855 14.8017 73.7447 14.7669C73.7047 14.7308 73.6565 14.7021 73.6029 14.6826C73.5495 14.6631 73.4921 14.6533 73.4342 14.6537H69.558V16.101H73.4342ZM80.6973 21.4291H78.0068V19.5453H80.6973V21.3969V21.4291ZM84.8749 21.4291H82.184V12.7133H84.8749V21.4291ZM97.6699 21.4291H94.9794L89.5975 16.012V21.4291H86.9071V12.7133H89.5975L94.9794 18.1304V12.7133H97.6699V21.4291ZM106.42 21.4291H103.155L98.7522 12.7133H101.659L104.773 18.8742L107.897 12.7133H110.804L106.392 21.4291H106.42ZM120.796 21.4291H113.693C113.179 21.4271 112.688 21.251 112.325 20.939C111.962 20.6271 111.757 20.2046 111.754 19.7636V14.3788C111.757 13.9377 111.962 13.5153 112.325 13.2034C112.688 12.8915 113.179 12.7154 113.693 12.7133H120.796V14.6942H114.869C114.812 14.6948 114.757 14.7052 114.705 14.7246C114.653 14.7441 114.607 14.7722 114.568 14.8073C114.525 14.8417 114.492 14.8831 114.47 14.929C114.447 14.9749 114.435 15.0243 114.436 15.0742V16.1414H119.93V18.0819H114.445V19.1573C114.45 19.2546 114.497 19.347 114.577 19.4159C114.657 19.4848 114.765 19.5251 114.878 19.5291H120.805V21.4697L120.796 21.4291ZM130.054 21.4291H122.414V19.4888H128.868C128.926 19.4891 128.984 19.4793 129.037 19.4599C129.09 19.4404 129.138 19.4116 129.178 19.3755C129.218 19.3417 129.249 19.3014 129.271 19.2569C129.292 19.2125 129.302 19.1648 129.301 19.1168V18.4134C129.302 18.3654 129.292 18.3177 129.271 18.2733C129.249 18.2288 129.218 18.1885 129.178 18.1546C129.138 18.1184 129.09 18.0898 129.037 18.0703C128.984 18.0508 128.926 18.041 128.868 18.0414H124.249C123.995 18.0439 123.743 18.0021 123.509 17.9187C123.275 17.8353 123.062 17.712 122.884 17.5564C122.7 17.4035 122.555 17.22 122.456 17.0169C122.357 16.8139 122.308 16.5959 122.311 16.3759V14.3788C122.316 13.9384 122.521 13.5172 122.884 13.2057C123.246 12.8943 123.736 12.7175 124.249 12.7133H131.775V14.6942H125.434C125.318 14.6951 125.206 14.7358 125.124 14.8073C125.083 14.8421 125.051 14.8838 125.03 14.9297C125.009 14.9756 124.999 15.0248 125.001 15.0742V15.7695C125.001 15.8174 125.011 15.8651 125.032 15.9095C125.053 15.9541 125.084 15.9944 125.124 16.0282C125.206 16.0997 125.318 16.1404 125.434 16.1414H130.054C130.311 16.1347 130.566 16.1731 130.805 16.2544C131.044 16.3359 131.259 16.4583 131.441 16.6143C131.623 16.7703 131.766 16.9566 131.861 17.1618C131.955 17.3668 132 17.5864 131.992 17.807V19.804C131.995 20.0221 131.946 20.2383 131.849 20.4399C131.752 20.6413 131.609 20.8237 131.427 20.9764C131.249 21.1346 131.036 21.2599 130.8 21.3448C130.564 21.4295 130.31 21.472 130.054 21.4697V21.4291ZM139.33 21.4291H136.63V14.6942H133.027V12.7537H142.924V14.6942H139.33V21.4697V21.4291ZM72.1076 26.3691H66.6885V33.3388H72.1076C72.4252 33.3399 72.7406 33.287 73.0345 33.183C73.3285 33.0788 73.5954 32.9255 73.82 32.7325C74.045 32.5395 74.2229 32.3098 74.3441 32.0571C74.4649 31.8046 74.5267 31.5339 74.5255 31.2608V28.4391C74.5267 28.1659 74.4649 27.8952 74.3441 27.6427C74.2229 27.3901 74.045 27.1606 73.82 26.9673C73.5954 26.7743 73.3285 26.6213 73.0345 26.5173C72.7406 26.4133 72.4252 26.3602 72.1076 26.361V26.3691ZM73.0483 31.1152C73.0483 31.3906 72.922 31.6546 72.6962 31.8502C72.4708 32.0454 72.1642 32.1561 71.8441 32.1583H68.1467V27.5497H71.8441C72.1627 27.5519 72.4676 27.6614 72.693 27.8552C72.9184 28.0489 73.046 28.3107 73.0483 28.5846V31.1152ZM75.8708 27.7033V32.0046C75.8708 32.18 75.9112 32.3535 75.9892 32.5152C76.0669 32.677 76.1814 32.8241 76.3255 32.948C76.4698 33.0719 76.6409 33.1701 76.829 33.2373C77.0176 33.3042 77.2192 33.3388 77.4232 33.3388H82.4569V32.1583H77.7525C77.7073 32.1583 77.6625 32.1506 77.6209 32.1355C77.5789 32.1204 77.5412 32.0979 77.5096 32.0704C77.4783 32.0424 77.4534 32.0094 77.4367 31.973C77.4205 31.9369 77.4126 31.8979 77.4138 31.8593V30.4524H81.7982V29.2475H77.4138V27.8409C77.4126 27.8019 77.4205 27.7633 77.4367 27.7268C77.4534 27.6908 77.4783 27.6578 77.5096 27.6298C77.5412 27.6019 77.5789 27.5799 77.6209 27.5644C77.6625 27.5493 77.7073 27.5415 77.7525 27.5415H82.4569V26.361H77.4609C77.0492 26.361 76.6543 26.5018 76.3632 26.7519C76.0721 27.0022 75.9085 27.3415 75.9085 27.6952L75.8708 27.7033ZM87.4525 31.9237L84.5738 26.3691H82.9837L86.5965 33.3388H88.318L91.9216 26.3691H90.3597L87.4716 31.9237H87.4525ZM92.6553 27.7033V32.0046C92.6542 32.1796 92.6934 32.3528 92.7701 32.5146C92.847 32.6762 92.9607 32.8237 93.1041 32.9476C93.2476 33.0715 93.4179 33.1701 93.6056 33.237C93.7934 33.3042 93.9951 33.3388 94.1983 33.3388H99.1943V32.1583H94.4901C94.4454 32.1571 94.4019 32.1488 94.361 32.1333C94.3206 32.1174 94.2838 32.0951 94.2533 32.0675C94.2228 32.0395 94.1987 32.0068 94.1828 31.9711C94.1669 31.9355 94.1594 31.8975 94.1606 31.8593V30.4524H98.5354V29.2475H94.1606V27.8409C94.1594 27.8026 94.1669 27.7644 94.1828 27.7288C94.1987 27.693 94.2228 27.6604 94.2533 27.6328C94.2838 27.6048 94.3206 27.5824 94.361 27.567C94.4019 27.5511 94.4454 27.5427 94.4901 27.5415H99.1943V26.361H94.2173C94.0136 26.361 93.8123 26.3956 93.6246 26.4628C93.4369 26.5302 93.2661 26.6284 93.1228 26.7526C92.9793 26.8765 92.866 27.0236 92.7887 27.1853C92.712 27.3471 92.6731 27.5206 92.6743 27.6952L92.6553 27.7033ZM101.951 26.3691H100.483V33.3388H106.504V32.1583H101.951V26.3691ZM113.777 26.3691H108.96C108.548 26.3691 108.154 26.5099 107.862 26.76C107.571 27.0103 107.408 27.3497 107.408 27.7033V32.0046C107.408 32.18 107.448 32.3535 107.526 32.5152C107.604 32.677 107.718 32.8241 107.862 32.948C108.007 33.0719 108.178 33.1701 108.366 33.2373C108.554 33.3042 108.756 33.3388 108.96 33.3388H113.777C113.981 33.3388 114.182 33.3042 114.37 33.237C114.558 33.1701 114.728 33.0715 114.872 32.9476C115.015 32.8237 115.129 32.6762 115.206 32.5146C115.282 32.3528 115.322 32.1796 115.32 32.0046V27.7033C115.322 27.5288 115.282 27.3552 115.206 27.1934C115.129 27.0316 115.015 26.8846 114.872 26.7606C114.728 26.6364 114.558 26.5383 114.37 26.471C114.182 26.4037 113.981 26.3691 113.777 26.3691ZM113.871 31.8593C113.869 31.938 113.831 32.0126 113.767 32.0685C113.702 32.1241 113.615 32.1564 113.523 32.1583H109.214C109.169 32.1583 109.124 32.1506 109.083 32.1355C109.04 32.1204 109.003 32.0979 108.971 32.0704C108.94 32.0424 108.915 32.0094 108.899 31.973C108.882 31.9369 108.874 31.8979 108.875 31.8593V27.8166C108.874 27.7777 108.882 27.739 108.899 27.7026C108.915 27.6666 108.94 27.6335 108.971 27.6055C109.003 27.5777 109.04 27.5556 109.083 27.5401C109.124 27.525 109.169 27.5173 109.214 27.5173H113.504C113.596 27.5195 113.683 27.5515 113.748 27.6073C113.813 27.663 113.85 27.7379 113.853 27.8166V31.8593H113.871ZM122.904 26.3691H116.882V33.3388H118.35V30.8649H122.913C123.117 30.8649 123.32 30.8299 123.509 30.7623C123.698 30.695 123.87 30.5957 124.014 30.4711C124.158 30.3464 124.272 30.1983 124.35 30.0353C124.427 29.8729 124.466 29.6983 124.465 29.5226V27.7115C124.465 27.3578 124.302 27.0184 124.01 26.768C123.719 26.5181 123.325 26.3771 122.913 26.3771L122.904 26.3691ZM122.997 29.3769C122.995 29.4548 122.957 29.5291 122.892 29.5832C122.827 29.6375 122.74 29.6681 122.649 29.6681H118.35V27.5497H122.649C122.742 27.5497 122.83 27.5813 122.896 27.6371C122.961 27.6934 122.997 27.7695 122.997 27.8489V29.3769ZM133.036 26.3691H132.961L130.138 30.0399L127.316 26.3691H125.735V33.3388H127.203V28.4876L129.386 31.3417H130.853L133.045 28.4876V33.3388H134.514V26.3691H133.036ZM136.057 27.7033V32.0046C136.055 32.1796 136.094 32.3528 136.172 32.5146C136.248 32.6762 136.361 32.8237 136.504 32.9476C136.648 33.0715 136.819 33.1701 137.006 33.237C137.195 33.3042 137.396 33.3388 137.599 33.3388H142.595V32.1583H137.89C137.846 32.1571 137.803 32.1488 137.763 32.1333C137.721 32.1174 137.685 32.0951 137.654 32.0675C137.623 32.0395 137.6 32.0068 137.583 31.9711C137.568 31.9355 137.56 31.8975 137.561 31.8593V30.4524H141.937V29.2475H137.561V27.8409C137.56 27.8026 137.568 27.7644 137.583 27.7288C137.6 27.693 137.623 27.6604 137.654 27.6328C137.685 27.6048 137.721 27.5824 137.763 27.567C137.803 27.5511 137.846 27.5427 137.89 27.5415H142.595V26.361H137.599C137.396 26.361 137.195 26.3956 137.006 26.4628C136.819 26.5302 136.648 26.6284 136.504 26.7526C136.361 26.8765 136.248 27.0236 136.172 27.1853C136.094 27.3471 136.055 27.5206 136.057 27.6952V27.7033ZM150.347 31.4144L145.361 26.3691H143.884V33.3388H145.361V28.2934L150.347 33.3388H151.805V26.3691H150.347V31.4144ZM152.765 27.5497H155.645V33.3388H157.112V27.5497H160V26.3691H152.765V27.5497Z" fill="#402E32"/>
<path d="M53.3367 5.83966H52.001V40.2184H53.3367V5.83966Z" fill="#D4B7A5"/>
</g>
<path fill-rule="evenodd" clip-rule="evenodd" d="M29.8914 28.8261L2.90809 43.0401C2.62874 43.192 2.3077 43.2779 1.97737 43.289C1.64703 43.3004 1.31905 43.2368 1.02642 43.1048C0.733241 42.9769 0.488828 42.7795 0.322097 42.5357C0.155364 42.2923 0.0732858 42.0125 0.0856055 41.7302L0.142055 34.9384C0.14669 34.5168 0.328039 34.1105 0.652907 33.7943C0.977734 33.4777 1.42434 33.2729 1.91083 33.2163C2.22377 33.1785 2.52324 33.0821 2.78818 32.9339C3.05311 32.7858 3.27708 32.5898 3.44436 32.3594L7.77223 26.5539C7.95215 26.3058 8.2031 26.101 8.50119 25.9595C8.79928 25.8179 9.13461 25.7444 9.47516 25.7455L29.0915 25.7941C29.4975 25.7867 29.8937 25.9014 30.2114 26.1183C30.5294 26.3356 30.7489 26.6412 30.8321 26.9827C30.9192 27.3372 30.8757 27.7058 30.707 28.0378C30.5382 28.3698 30.253 28.6481 29.8914 28.8342V28.8261ZM0.000913179 29.2143C-0.0121196 29.561 0.114682 29.9008 0.359888 30.1765C0.605054 30.4519 0.953532 30.6461 1.3463 30.7262C1.75745 30.8045 2.18681 30.7681 2.5724 30.6228C2.958 30.4773 3.27986 30.2306 3.49143 29.9177L13.0409 17.1025C13.2295 16.8683 13.3428 16.5952 13.3692 16.3114C13.3956 16.0274 13.3343 15.7425 13.1915 15.4854L9.4281 8.64525C9.28443 8.40373 9.20951 8.1363 9.20951 7.86505C9.20951 7.59374 9.28443 7.32635 9.4281 7.0848C9.65476 6.72085 9.71085 6.29617 9.58493 5.89782C9.45899 5.49946 9.16052 5.15754 8.75071 4.94221L3.10568 2.20128C2.80822 2.06021 2.47182 1.99098 2.13222 2.00094C1.79266 2.01091 1.46255 2.09969 1.17695 2.2579C0.885079 2.41393 0.645063 2.63217 0.480194 2.89141C0.315363 3.15064 0.231303 3.44212 0.236135 3.7375L0.0197297 29.1658L0.000913179 29.2143ZM14.2734 7.198C13.911 7.02208 13.4908 6.95443 13.0788 7.00564C12.6668 7.05685 12.2862 7.22403 11.9966 7.48099C11.6871 7.72048 11.4746 8.03861 11.39 8.38903C11.3054 8.73948 11.3531 9.10397 11.5262 9.42954L19.307 23.5061C19.4492 23.7708 19.6778 23.9939 19.965 24.1492C20.2523 24.3043 20.5858 24.3841 20.9253 24.3794H30.7382C31.0658 24.3595 31.3934 24.4186 31.6843 24.5502C31.975 24.6815 32.2174 24.88 32.3845 25.1231C32.6781 25.4418 33.0948 25.6595 33.5591 25.7366C34.0237 25.8139 34.5046 25.7455 34.9155 25.5436L40.344 22.6814C40.6305 22.5263 40.867 22.3116 41.0314 22.0572C41.1961 21.8028 41.2832 21.5169 41.2849 21.2259C41.3019 20.9455 41.227 20.6667 41.0689 20.4209C40.9114 20.1751 40.6764 19.9723 40.3912 19.8352L14.2734 7.198Z" fill="#D7B56D"/>
<defs>
<filter id="filter0_i_75_815" x="52.001" y="5.83966" width="107.999" height="39.5401" filterUnits="userSpaceOnUse" color-interpolation-filters="sRGB">
<feFlood flood-opacity="0" result="BackgroundImageFix"/>
<feBlend mode="normal" in="SourceGraphic" in2="BackgroundImageFix" result="shape"/>
<feColorMatrix in="SourceAlpha" type="matrix" values="0 0 0 0 0 0 0 0 0 0 0 0 0 0 0 0 0 0 127 0" result="hardAlpha"/>
<feOffset dy="5.16129"/>
<feGaussianBlur stdDeviation="32.2581"/>
<feComposite in2="hardAlpha" operator="arithmetic" k2="-1" k3="1"/>
<feColorMatrix type="matrix" values="0 0 0 0 0 0 0 0 0 0 0 0 0 0 0 0 0 0 0.28 0"/>
<feBlend mode="normal" in2="shape" result="effect1_innerShadow_75_815"/>
</filter>
</defs>
</svg>
