<svg width="48" height="48" viewBox="0 0 48 48" fill="none" xmlns="http://www.w3.org/2000/svg">
<path fill-rule="evenodd" clip-rule="evenodd" d="M18 19.5C16.6193 19.5 15.5 20.6193 15.5 22V34C15.5 35.3807 16.6193 36.5 18 36.5H38C39.3807 36.5 40.5 35.3807 40.5 34V22C40.5 20.6193 39.3807 19.5 38 19.5H18ZM12.5 22C12.5 18.9624 14.9624 16.5 18 16.5H38C41.0376 16.5 43.5 18.9624 43.5 22V34C43.5 37.0376 41.0376 39.5 38 39.5H18C14.9624 39.5 12.5 37.0376 12.5 34V22Z" fill="#A155B9"/>
<path fill-rule="evenodd" clip-rule="evenodd" d="M28 25.5C26.6193 25.5 25.5 26.6193 25.5 28C25.5 29.3807 26.6193 30.5 28 30.5C29.3807 30.5 30.5 29.3807 30.5 28C30.5 26.6193 29.3807 25.5 28 25.5ZM22.5 28C22.5 24.9624 24.9624 22.5 28 22.5C31.0376 22.5 33.5 24.9624 33.5 28C33.5 31.0376 31.0376 33.5 28 33.5C24.9624 33.5 22.5 31.0376 22.5 28Z" fill="#A155B9"/>
<path fill-rule="evenodd" clip-rule="evenodd" d="M6.11091 10.1109C7.14236 9.07946 8.54131 8.5 10 8.5H30C31.4587 8.5 32.8576 9.07946 33.8891 10.1109C34.9205 11.1424 35.5 12.5413 35.5 14V18C35.5 18.8284 34.8284 19.5 34 19.5C33.1716 19.5 32.5 18.8284 32.5 18V14C32.5 13.337 32.2366 12.7011 31.7678 12.2322C31.2989 11.7634 30.663 11.5 30 11.5H10C9.33696 11.5 8.70107 11.7634 8.23223 12.2322C7.76339 12.7011 7.5 13.337 7.5 14V26C7.5 26.663 7.76339 27.2989 8.23223 27.7678C8.70107 28.2366 9.33696 28.5 10 28.5H14C14.8284 28.5 15.5 29.1716 15.5 30C15.5 30.8284 14.8284 31.5 14 31.5H10C8.54131 31.5 7.14236 30.9205 6.11091 29.8891C5.07946 28.8576 4.5 27.4587 4.5 26V14C4.5 12.5413 5.07946 11.1424 6.11091 10.1109Z" fill="#A155B9"/>
</svg>
