<svg xmlns="http://www.w3.org/2000/svg" version="1.1" xlink="http://www.w3.org/1999/xlink" svgjs="http://svgjs.com/svgjs" width="20" height="20" x="0" y="0" viewBox="0 0 64 64" style="enable-background:new 0 0 512 512" space="preserve" class=""><g><path xmlns="http://www.w3.org/2000/svg" d="m59 7.05225h-3.97168a7.905 7.905 0 0 0 -7.77441 5.40088l-1.36481 4.79687h-4.8491a1 1 0 0 0 0 2h4.28l-5.036 17.7002h-20.14386a1 1 0 1 0 0 2h19.57486l-.85065 2.98974h-25.96445a.74168.74168 0 0 1 -.73828-.44433l-.72473-2.54541h4.70325a1 1 0 0 0 0-2h-5.27277l-4.85419-17.04834a.39641.39641 0 0 1 .07959-.3584.8311.8311 0 0 1 .667-.29346h30.28023a1 1 0 0 0 0-2h-30.28023a2.83615 2.83615 0 0 0 -2.25928 1.0835 2.39631 2.39631 0 0 0 -.4126 2.11035l6.148 21.59179a2.71329 2.71329 0 0 0 2.66406 1.9043h26.67525a3.28724 3.28724 0 0 1 2.40722 1.24317 1.64218 1.64218 0 0 1 .33594 1.32812 2.77045 2.77045 0 0 1 -2.69824 1.59766h-28.08985a1 1 0 0 0 0 2h2.52484a4.093 4.093 0 0 0 -.80657 2.41943 4.67875 4.67875 0 0 0 4.8916 4.41943 4.67875 4.67875 0 0 0 4.8916-4.41943 4.093 4.093 0 0 0 -.80658-2.41943h9.41864a4.09322 4.09322 0 0 0 -.8064 2.41943 4.6783 4.6783 0 0 0 4.89112 4.41943 4.67875 4.67875 0 0 0 4.8916-4.41943 4.0955 4.0955 0 0 0 -.81549-2.43433 4.66744 4.66744 0 0 0 4.45318-3.09253 3.623 3.623 0 0 0 -.65429-2.98828 5.02762 5.02762 0 0 0 -2.72-1.86126l8.29421-29.15192a5.90573 5.90573 0 0 1 5.85059-3.94775h3.97168a1 1 0 0 0 0-2zm-40.85986 47.8955a2.69059 2.69059 0 0 1 -2.8916-2.41943 2.69059 2.69059 0 0 1 2.8916-2.41943 2.69059 2.69059 0 0 1 2.8916 2.41943 2.69059 2.69059 0 0 1 -2.8916 2.41943zm17.58838 0a2.45791 2.45791 0 1 1 0-4.83886 2.458 2.458 0 1 1 0 4.83886z" fill="#000000" data-original="#000000"></path><path xmlns="http://www.w3.org/2000/svg" d="m9.76611 21.91846a.99947.99947 0 0 0 -.59375 1.2832l1.88916 5.14307a.99979.99979 0 1 0 1.877-.68946l-1.88916-5.14306a.9999.9999 0 0 0 -1.28325-.59375z" fill="#000000" data-original="#000000"></path></g></svg>