<?xml version="1.0" standalone="no"?><!DOCTYPE svg PUBLIC "-//W3C//DTD SVG 20010904//EN"
 "http://www.w3.org/TR/2001/REC-SVG-20010904/DTD/svg10.dtd"><svg version="1.0" xmlns="http://www.w3.org/2000/svg" width="109.000000pt" height="102.000000pt" viewBox="0 0 109.000000 102.000000" preserveAspectRatio="xMidYMid meet"><g transform="translate(0.000000,102.000000) scale(0.100000,-0.100000)" fill="#000000" stroke="none"><path d="M22 1008 c-17 -17 -17 -959 0 -976 17 -17 619 -17 636 0 8 8 12 59
12 165 l0 153 194 0 c164 0 197 3 210 16 24 23 24 598 0 632 l-15 22 -513 0
c-385 0 -515 -3 -524 -12z m568 -488 l0 -410 -250 0 -250 0 0 185 0 184 121 3
c103 3 124 6 133 21 8 12 8 22 0 35 -9 14 -30 17 -133 20 l-121 3 0 184 0 185
250 0 250 0 0 -410z m420 160 l0 -250 -170 0 -170 0 0 250 0 250 170 0 170 0
0 -250z"/></g></svg>