<svg xmlns="http://www.w3.org/2000/svg"
     width="512"
     height="512"
     enableBackground="new 0 0 512 512"
     viewBox="0 0 32 32">
    <path d="M29.539 2.435A4.95 4.95 0 0026.01.97a4.956 4.956 0 00-4.872 3.98h-6.457a1 1 0 00-.708.294L1.7 17.539a2.619 2.619 0 000 3.693l9.014 9.033a2.591 2.591 0 001.846.765 2.589 2.589 0 001.845-.765l12.269-12.3a1 1 0 00.292-.706v-6.384A4.945 4.945 0 0029.539 9.5a5.013 5.013 0 000-7.065zM12.994 28.852a.608.608 0 01-.86 0L3.12 19.82a.618.618 0 010-.869L15.1 6.95h9.875v1.825a2.954 2.954 0 01-1.077-.684 1 1 0 00-1.42 1.409 4.938 4.938 0 002.493 1.352v5.998zM28.123 8.091a2.966 2.966 0 01-1.152.707V5.95a1 1 0 00-1-1H23.2a2.981 2.981 0 014.921-1.1 3.007 3.007 0 01.002 4.241z" data-original="#000000"></path>
    <path d="M19.192 14.414l.707-.707a1 1 0 00-1.414-1.414l-.706.707a3 3 0 10-4.243 4.243l1.414 1.413a1 1 0 11-1.414 1.415l-2.828-2.828a1 1 0 00-1.414 1.414l1.414 1.414-.708.707a1 1 0 101.414 1.414l.707-.706a3 3 0 004.244-4.243l-1.415-1.414a1 1 0 111.414-1.415l2.828 2.829a1 1 0 101.414-1.414z" data-original="#000000"></path>
</svg>