<svg xmlns="http://www.w3.org/2000/svg"
     width="16"
     height="16"
     enableBackground="new 0 0 512 512"
     viewBox="0 0 508.24 508.24">
    <path d="M496.868 144.296l-25.372-4.053v-25.645c0-7.444-6.056-13.5-13.5-13.5H174.291a7.5 7.5 0 000 15h73.289v119.587H74.211l-13.67-85.573c-.684-4.286-3.335-7.769-6.877-9.706v-24.309h90.628a7.5 7.5 0 000-15H52.163c-7.444 0-13.5 6.056-13.5 13.5v25.338l-27.291 4.36c-7.351 1.174-12.375 8.109-11.202 15.46l20.127 125.99a13.44 13.44 0 0013.331 11.371h1.315v17.817c0 7.444 6.056 13.5 13.5 13.5H67.36l-17.21 61.573a13.392 13.392 0 002.247 11.794 13.394 13.394 0 0010.754 5.34H78.59c5.563 0 10.633-3.493 12.615-8.691l26.687-70.016h184.679c4.143 0 7.5-3.358 7.5-7.5s-3.357-7.5-7.5-7.5H49.944v-16.317h410.661v16.317H332.573c-4.143 0-7.5 3.358-7.5 7.5s3.357 7.5 7.5 7.5h59.693l26.687 70.016c1.981 5.198 7.051 8.691 12.614 8.691h15.439c4.26 0 8.18-1.946 10.755-5.339a13.4 13.4 0 002.247-11.795l-17.211-61.573h19.307c7.444 0 13.5-6.056 13.5-13.5v-17.817h4.124a7.503 7.503 0 007.407-6.317l20.935-131.045c1.173-7.349-3.852-14.284-11.202-15.458zM77.559 392.142H65.13l17.807-63.707h18.904zm367.471 0H432.6l-24.282-63.707h18.905zM262.58 116.098h193.916v23.434c-4.487 1.61-7.993 5.549-8.797 10.58l-13.67 85.573H262.58zm210.751 166.019H34.908L15.219 158.872l30.746-4.912 13.636 85.355a13.442 13.442 0 0013.331 11.371h362.376a13.444 13.444 0 0013.332-11.37l13.636-85.356 30.745 4.912z" data-original="#000000"></path>
</svg>