<svg xmlns="http://www.w3.org/2000/svg"
     width="24"
     height="24"
     enableBackground="new 0 0 512 512"
     viewBox="0 0 432 432">
    <path d="M424 384h-24V56c0-13.2-10.8-24-24-24h-64c-13.2 0-24 10.8-24 24v328h-16V168c0-13.2-10.8-24-24-24h-64c-13.2 0-24 10.8-24 24v216h-16V280c0-13.2-10.8-24-24-24H56c-13.2 0-24 10.8-24 24v104H8c-4.4 0-8 3.6-8 8s3.6 8 8 8h416c4.4 0 8-3.6 8-8s-3.6-8-8-8zm-296 0H48V280c0-4.4 3.6-8 8-8h64c4.4 0 8 3.6 8 8v104zm128 0h-80V168c0-4.4 3.6-8 8-8h64c4.4 0 8 3.6 8 8v216zm128 0h-80V56c0-4.4 3.6-8 8-8h64c4.4 0 8 3.6 8 8v328z" data-original="#000000"></path>
</svg>