<svg width="42" height="42" viewBox="0 0 42 42" fill="none" xmlns="http://www.w3.org/2000/svg">
<path fill-rule="evenodd" clip-rule="evenodd" d="M29.8914 26.8261L2.90809 41.0401C2.62874 41.192 2.3077 41.2779 1.97737 41.289C1.64703 41.3004 1.31905 41.2368 1.02642 41.1048C0.733241 40.9769 0.488828 40.7795 0.322097 40.5357C0.155364 40.2923 0.0732858 40.0125 0.0856055 39.7302L0.142055 32.9385C0.14669 32.5168 0.328039 32.1105 0.652907 31.7943C0.977734 31.4777 1.42434 31.2729 1.91083 31.2163C2.22377 31.1785 2.52324 31.0821 2.78818 30.9339C3.05311 30.7858 3.27708 30.5898 3.44436 30.3594L7.77223 24.5539C7.95215 24.3058 8.2031 24.101 8.50119 23.9595C8.79928 23.8179 9.13461 23.7444 9.47516 23.7455L29.0915 23.7941C29.4975 23.7867 29.8937 23.9014 30.2114 24.1183C30.5294 24.3356 30.7489 24.6412 30.8321 24.9827C30.9192 25.3372 30.8757 25.7058 30.707 26.0378C30.5382 26.3698 30.253 26.6481 29.8914 26.8342V26.8261ZM0.000913179 27.2143C-0.0121196 27.561 0.114682 27.9008 0.359888 28.1765C0.605054 28.4519 0.953532 28.6461 1.3463 28.7262C1.75745 28.8045 2.18681 28.7681 2.5724 28.6228C2.958 28.4773 3.27986 28.2306 3.49143 27.9177L13.0409 15.1025C13.2295 14.8683 13.3428 14.5952 13.3692 14.3114C13.3956 14.0274 13.3343 13.7425 13.1915 13.4854L9.4281 6.64525C9.28443 6.40373 9.20951 6.1363 9.20951 5.86505C9.20951 5.59374 9.28443 5.32635 9.4281 5.0848C9.65476 4.72085 9.71085 4.29617 9.58493 3.89782C9.45899 3.49946 9.16052 3.15754 8.75071 2.94221L3.10568 0.201279C2.80822 0.060208 2.47182 -0.00902152 2.13222 0.000941993C1.79266 0.0109055 1.46255 0.0996942 1.17695 0.257897C0.885079 0.413932 0.645063 0.632172 0.480194 0.891408C0.315363 1.15064 0.231303 1.44212 0.236135 1.7375L0.0197297 27.1658L0.000913179 27.2143ZM14.2734 5.198C13.911 5.02208 13.4908 4.95443 13.0788 5.00564C12.6668 5.05685 12.2862 5.22403 11.9966 5.48099C11.6871 5.72048 11.4746 6.03861 11.39 6.38903C11.3054 6.73948 11.3531 7.10397 11.5262 7.42954L19.307 21.5061C19.4492 21.7708 19.6778 21.9939 19.965 22.1492C20.2523 22.3043 20.5858 22.3841 20.9253 22.3794H30.7382C31.0658 22.3595 31.3934 22.4186 31.6843 22.5502C31.975 22.6815 32.2174 22.88 32.3845 23.1231C32.6781 23.4418 33.0948 23.6595 33.5591 23.7366C34.0237 23.8139 34.5046 23.7455 34.9155 23.5436L40.344 20.6814C40.6304 20.5263 40.867 20.3116 41.0314 20.0572C41.1961 19.8028 41.2832 19.5169 41.2849 19.2259C41.3019 18.9455 41.227 18.6667 41.0689 18.4209C40.9114 18.1751 40.6764 17.9723 40.3912 17.8352L14.2734 5.198Z" fill="#D7B56D"/>
</svg>
